<svg width="32" height="32" viewBox="0 0 32 32" fill="none" xmlns="http://www.w3.org/2000/svg">
<rect width="32" height="32" fill="#FAC13C"/>
<path d="M7.92188 18.0357C7.92188 18.1121 7.91881 18.1778 7.91268 18.2328C7.90961 18.2848 7.90348 18.3306 7.89428 18.3703C7.88508 18.407 7.87282 18.4391 7.85749 18.4666C7.84216 18.4941 7.81763 18.5262 7.7839 18.5629C7.75018 18.5965 7.68426 18.6408 7.58614 18.6958C7.49109 18.7508 7.37305 18.8043 7.23201 18.8562C7.09403 18.9051 6.9346 18.9464 6.7537 18.98C6.57586 19.0136 6.3827 19.0304 6.17421 19.0304C5.76642 19.0304 5.39849 18.9678 5.07042 18.8425C4.74234 18.7172 4.46333 18.5308 4.23337 18.2832C4.00342 18.0326 3.82712 17.7209 3.70447 17.3481C3.58183 16.9753 3.52051 16.5413 3.52051 16.0463C3.52051 15.542 3.58796 15.0943 3.72287 14.7032C3.85778 14.312 4.04634 13.9835 4.28856 13.7176C4.53078 13.4517 4.82053 13.25 5.1578 13.1125C5.49813 12.975 5.8722 12.9062 6.27999 12.9062C6.44556 12.9062 6.60499 12.92 6.7583 12.9475C6.9116 12.975 7.05264 13.0117 7.18142 13.0575C7.31326 13.1003 7.4313 13.1507 7.53555 13.2088C7.6398 13.2669 7.71185 13.3173 7.75171 13.3601C7.79463 13.3998 7.82376 13.4334 7.83909 13.4609C7.85442 13.4884 7.86669 13.5236 7.87589 13.5663C7.88508 13.6091 7.89122 13.6595 7.89428 13.7176C7.90041 13.7757 7.90348 13.8475 7.90348 13.9331C7.90348 14.0247 7.90041 14.1027 7.89428 14.1668C7.88815 14.231 7.87742 14.283 7.86209 14.3227C7.84676 14.3624 7.82836 14.3915 7.8069 14.4098C7.78544 14.4281 7.76091 14.4373 7.73331 14.4373C7.68732 14.4373 7.62907 14.4113 7.55855 14.3594C7.48803 14.3044 7.39604 14.2448 7.2826 14.1806C7.17222 14.1134 7.03884 14.0538 6.88247 14.0018C6.72917 13.9468 6.5452 13.9193 6.33058 13.9193C6.09449 13.9193 5.88293 13.9682 5.6959 14.066C5.51193 14.1607 5.35403 14.2982 5.22219 14.4785C5.09341 14.6558 4.9953 14.8712 4.92784 15.1249C4.86039 15.3785 4.82666 15.6643 4.82666 15.9821C4.82666 16.3305 4.86192 16.633 4.93244 16.8897C5.00603 17.1434 5.10874 17.3527 5.24058 17.5177C5.37549 17.6827 5.53646 17.8065 5.72349 17.889C5.91359 17.9685 6.12668 18.0082 6.36277 18.0082C6.5774 18.0082 6.7629 17.9837 6.91927 17.9349C7.07564 17.8829 7.20901 17.8264 7.31939 17.7652C7.43284 17.7041 7.52482 17.6491 7.59534 17.6002C7.66892 17.5513 7.72565 17.5269 7.76551 17.5269C7.79617 17.5269 7.8207 17.533 7.83909 17.5452C7.85749 17.5574 7.87282 17.5819 7.88508 17.6186C7.89735 17.6552 7.90655 17.7072 7.91268 17.7744C7.91881 17.8386 7.92188 17.9257 7.92188 18.0357Z" fill="#3F3E40"/>
<path d="M12.8705 16.6926C12.8705 17.041 12.8246 17.3588 12.7326 17.6461C12.6406 17.9333 12.5011 18.1809 12.314 18.3887C12.127 18.5965 11.8925 18.7569 11.6104 18.87C11.3283 18.983 10.9987 19.0396 10.6216 19.0396C10.2567 19.0396 9.93936 18.9892 9.66955 18.8883C9.39973 18.7875 9.17591 18.6408 8.99807 18.4483C8.82024 18.2557 8.6884 18.0189 8.60255 17.7377C8.5167 17.4566 8.47377 17.1357 8.47377 16.7751C8.47377 16.4267 8.51976 16.1089 8.61175 15.8216C8.7068 15.5313 8.84784 15.2838 9.03487 15.079C9.2219 14.8712 9.45492 14.7108 9.73394 14.5977C10.016 14.4847 10.3456 14.4281 10.7227 14.4281C11.0907 14.4281 11.4096 14.4785 11.6794 14.5794C11.9492 14.6772 12.1715 14.8223 12.3462 15.0149C12.5241 15.2074 12.6559 15.4442 12.7418 15.7254C12.8276 16.0065 12.8705 16.3289 12.8705 16.6926ZM11.6794 16.7384C11.6794 16.5367 11.6625 16.3519 11.6288 16.1838C11.5981 16.0126 11.5445 15.8644 11.4678 15.7391C11.3912 15.6138 11.2884 15.516 11.1597 15.4458C11.034 15.3755 10.8745 15.3403 10.6814 15.3403C10.5097 15.3403 10.3594 15.3724 10.2306 15.4366C10.1019 15.4977 9.99609 15.5894 9.9133 15.7116C9.83052 15.8308 9.76766 15.976 9.72474 16.1471C9.68488 16.3152 9.66495 16.5077 9.66495 16.7247C9.66495 16.9264 9.68181 17.1128 9.71554 17.2839C9.74927 17.452 9.80292 17.5987 9.87651 17.724C9.95316 17.8493 10.0559 17.9471 10.1846 18.0174C10.3134 18.0846 10.4729 18.1182 10.663 18.1182C10.8377 18.1182 10.9895 18.0876 11.1183 18.0265C11.247 17.9624 11.3528 17.8707 11.4356 17.7515C11.5184 17.6323 11.5797 17.4887 11.6196 17.3206C11.6594 17.1495 11.6794 16.9554 11.6794 16.7384Z" fill="#3F3E40"/>
<path d="M16.4257 15.0699C16.4257 15.1799 16.4226 15.27 16.4165 15.3403C16.4103 15.4106 16.4011 15.4656 16.3889 15.5054C16.3766 15.5451 16.3598 15.5726 16.3383 15.5879C16.3199 15.6031 16.2954 15.6108 16.2647 15.6108C16.2402 15.6108 16.2126 15.6062 16.1819 15.597C16.1513 15.5848 16.116 15.5726 16.0761 15.5604C16.0393 15.5481 15.998 15.5374 15.952 15.5283C15.906 15.516 15.8554 15.5099 15.8002 15.5099C15.7358 15.5099 15.6714 15.5237 15.607 15.5512C15.5426 15.5756 15.4752 15.6154 15.4047 15.6704C15.3372 15.7254 15.2652 15.7987 15.1885 15.8904C15.1149 15.9821 15.0352 16.0952 14.9494 16.2296V18.7783C14.9494 18.8089 14.9402 18.8364 14.9218 18.8608C14.9034 18.8822 14.8712 18.9005 14.8252 18.9158C14.7822 18.9311 14.724 18.9418 14.6504 18.9479C14.5768 18.9571 14.4833 18.9617 14.3699 18.9617C14.2564 18.9617 14.1629 18.9571 14.0893 18.9479C14.0157 18.9418 13.9559 18.9311 13.9099 18.9158C13.867 18.9005 13.8364 18.8822 13.818 18.8608C13.7996 18.8364 13.7904 18.8089 13.7904 18.7783V14.6894C13.7904 14.6588 13.798 14.6329 13.8134 14.6115C13.8287 14.587 13.8563 14.5672 13.8961 14.5519C13.936 14.5366 13.9866 14.5259 14.0479 14.5198C14.1123 14.5106 14.192 14.5061 14.2871 14.5061C14.3852 14.5061 14.4664 14.5106 14.5308 14.5198C14.5952 14.5259 14.6443 14.5366 14.678 14.5519C14.7148 14.5672 14.7409 14.587 14.7562 14.6115C14.7715 14.6329 14.7792 14.6588 14.7792 14.6894V15.1982C14.8865 15.0454 14.9877 14.9201 15.0827 14.8223C15.1778 14.7215 15.2682 14.642 15.3541 14.584C15.4399 14.5259 15.5258 14.4862 15.6116 14.4648C15.6975 14.4403 15.7833 14.4281 15.8692 14.4281C15.909 14.4281 15.952 14.4312 15.998 14.4373C16.0439 14.4403 16.0915 14.448 16.1405 14.4602C16.1896 14.4694 16.2325 14.4816 16.2693 14.4969C16.3061 14.5091 16.3322 14.5229 16.3475 14.5381C16.3659 14.5534 16.3781 14.5702 16.3843 14.5886C16.3935 14.6069 16.4011 14.6329 16.4073 14.6665C16.4134 14.697 16.418 14.7444 16.4211 14.8086C16.4241 14.8728 16.4257 14.9599 16.4257 15.0699Z" fill="#3F3E40"/>
<path d="M19.5669 18.3749C19.5669 18.5094 19.5577 18.6133 19.5393 18.6866C19.524 18.7569 19.5025 18.8073 19.4749 18.8379C19.4473 18.8654 19.4059 18.8914 19.3507 18.9158C19.2986 18.9372 19.2357 18.9555 19.1622 18.9708C19.0916 18.9892 19.0135 19.0029 18.9276 19.0121C18.8448 19.0212 18.7605 19.0258 18.6746 19.0258C18.4447 19.0258 18.2454 18.9968 18.0768 18.9387C17.9081 18.8807 17.7686 18.7921 17.6582 18.6729C17.5479 18.5506 17.4666 18.3978 17.4145 18.2145C17.3624 18.0311 17.3363 17.8141 17.3363 17.5635V15.4687H16.8442C16.7859 15.4687 16.7415 15.4335 16.7108 15.3633C16.6802 15.2899 16.6648 15.1692 16.6648 15.0011C16.6648 14.9125 16.6679 14.8376 16.674 14.7765C16.6832 14.7154 16.6955 14.668 16.7108 14.6344C16.7261 14.5977 16.7445 14.5718 16.766 14.5565C16.7905 14.5412 16.8181 14.5336 16.8488 14.5336H17.3363V13.6213C17.3363 13.5908 17.344 13.5633 17.3593 13.5388C17.3777 13.5144 17.4084 13.4945 17.4513 13.4792C17.4973 13.4609 17.5571 13.4487 17.6306 13.4426C17.7073 13.4334 17.8008 13.4288 17.9112 13.4288C18.0246 13.4288 18.1182 13.4334 18.1917 13.4426C18.2684 13.4487 18.3282 13.4609 18.3711 13.4792C18.414 13.4945 18.4447 13.5144 18.4631 13.5388C18.4815 13.5633 18.4907 13.5908 18.4907 13.6213V14.5336H19.3829C19.4136 14.5336 19.4396 14.5412 19.4611 14.5565C19.4856 14.5718 19.5056 14.5977 19.5209 14.6344C19.5362 14.668 19.5469 14.7154 19.5531 14.7765C19.5623 14.8376 19.5669 14.9125 19.5669 15.0011C19.5669 15.1692 19.5515 15.2899 19.5209 15.3633C19.4902 15.4335 19.4458 15.4687 19.3875 15.4687H18.4907V17.3894C18.4907 17.6124 18.5259 17.7805 18.5965 17.8936C18.667 18.0036 18.7927 18.0586 18.9736 18.0586C19.0349 18.0586 19.0901 18.054 19.1392 18.0449C19.1882 18.0326 19.2311 18.0204 19.2679 18.0082C19.3078 17.9929 19.34 17.9807 19.3645 17.9715C19.3921 17.9593 19.4166 17.9532 19.4381 17.9532C19.4565 17.9532 19.4734 17.9593 19.4887 17.9715C19.5071 17.9807 19.5209 18.0021 19.5301 18.0357C19.5393 18.0663 19.5469 18.109 19.5531 18.164C19.5623 18.2191 19.5669 18.2893 19.5669 18.3749Z" fill="#3F3E40"/>
<path d="M24.074 16.6147C24.074 16.7552 24.0418 16.8591 23.9774 16.9264C23.9161 16.9936 23.8303 17.0272 23.7199 17.0272H21.2226C21.2226 17.2014 21.2425 17.3603 21.2824 17.504C21.3253 17.6445 21.3912 17.7652 21.4801 17.8661C21.5721 17.9639 21.6886 18.0388 21.8297 18.0907C21.9738 18.1427 22.1455 18.1686 22.3448 18.1686C22.5471 18.1686 22.725 18.1549 22.8783 18.1274C23.0316 18.0968 23.1634 18.0647 23.2738 18.0311C23.3872 17.9944 23.4807 17.9624 23.5543 17.9349C23.6279 17.9043 23.6877 17.889 23.7337 17.889C23.7613 17.889 23.7843 17.8951 23.8027 17.9073C23.8211 17.9165 23.8364 17.9349 23.8487 17.9624C23.8609 17.9899 23.8686 18.0296 23.8717 18.0815C23.8778 18.1304 23.8809 18.1931 23.8809 18.2695C23.8809 18.3367 23.8793 18.3948 23.8763 18.4437C23.8732 18.4895 23.8686 18.5292 23.8625 18.5629C23.8563 18.5965 23.8471 18.6255 23.8349 18.6499C23.8226 18.6713 23.8057 18.6927 23.7843 18.7141C23.7659 18.7355 23.7122 18.7645 23.6233 18.8012C23.5344 18.8379 23.421 18.8746 23.283 18.9112C23.145 18.9448 22.9871 18.9739 22.8093 18.9983C22.6314 19.0258 22.4413 19.0396 22.239 19.0396C21.8741 19.0396 21.5537 18.9937 21.2778 18.9021C21.0049 18.8104 20.7765 18.6713 20.5925 18.4849C20.4085 18.2985 20.2705 18.0632 20.1786 17.779C20.0896 17.4948 20.0452 17.1617 20.0452 16.7797C20.0452 16.416 20.0927 16.089 20.1878 15.7987C20.2828 15.5054 20.4208 15.2578 20.6017 15.0561C20.7826 14.8514 21.0018 14.6955 21.2594 14.5886C21.52 14.4816 21.8128 14.4281 22.1378 14.4281C22.4812 14.4281 22.774 14.4785 23.0162 14.5794C23.2615 14.6802 23.4623 14.8208 23.6187 15.0011C23.7751 15.1784 23.8901 15.3892 23.9637 15.6337C24.0372 15.8782 24.074 16.1441 24.074 16.4313V16.6147ZM22.9518 16.2846C22.961 15.9607 22.8951 15.707 22.7541 15.5237C22.6161 15.3373 22.4015 15.2441 22.1102 15.2441C21.963 15.2441 21.8343 15.2716 21.7239 15.3266C21.6166 15.3816 21.5261 15.4565 21.4525 15.5512C21.382 15.6429 21.3268 15.7529 21.287 15.8812C21.2502 16.0065 21.2287 16.141 21.2226 16.2846H22.9518Z" fill="#3F3E40"/>
<path d="M28.4478 18.6958C28.4723 18.7477 28.4831 18.7905 28.48 18.8241C28.48 18.8578 28.4585 18.8853 28.4156 18.9066C28.3727 18.928 28.3068 18.9418 28.2178 18.9479C28.1289 18.9571 28.0109 18.9617 27.8637 18.9617C27.7257 18.9617 27.6138 18.9586 27.528 18.9525C27.4452 18.9494 27.3793 18.9418 27.3302 18.9296C27.2842 18.9143 27.249 18.8975 27.2244 18.8791C27.203 18.8578 27.1861 18.8318 27.1738 18.8012L26.415 17.3481L25.6561 18.8012C25.6439 18.8318 25.627 18.8578 25.6055 18.8791C25.5841 18.8975 25.5504 18.9143 25.5044 18.9296C25.4614 18.9418 25.4001 18.9494 25.3204 18.9525C25.2407 18.9586 25.1364 18.9617 25.0077 18.9617C24.8727 18.9617 24.7654 18.9571 24.6857 18.9479C24.606 18.9418 24.5477 18.928 24.5109 18.9066C24.4742 18.8853 24.4542 18.8578 24.4512 18.8241C24.4512 18.7905 24.465 18.7477 24.4926 18.6958L25.6285 16.6834L24.5799 14.7948C24.5523 14.7398 24.537 14.694 24.5339 14.6573C24.5339 14.6176 24.5539 14.587 24.5937 14.5656C24.6336 14.5443 24.6964 14.529 24.7823 14.5198C24.8712 14.5106 24.9908 14.5061 25.141 14.5061C25.2759 14.5061 25.3832 14.5091 25.463 14.5152C25.5458 14.5183 25.6101 14.5244 25.6561 14.5336C25.7021 14.5427 25.7358 14.558 25.7573 14.5794C25.7788 14.5977 25.7972 14.6222 25.8125 14.6527L26.5438 16.0188L27.2704 14.6527C27.2796 14.6283 27.2934 14.6069 27.3118 14.5886C27.3302 14.5702 27.3593 14.5549 27.3992 14.5427C27.4391 14.5305 27.4927 14.5213 27.5602 14.5152C27.6307 14.5091 27.7257 14.5061 27.8453 14.5061C27.9802 14.5061 28.0875 14.5091 28.1673 14.5152C28.25 14.5213 28.3083 14.5351 28.342 14.5565C28.3788 14.5779 28.3957 14.6084 28.3926 14.6482C28.3926 14.6848 28.3758 14.7337 28.342 14.7948L27.321 16.6513L28.4478 18.6958Z" fill="#3F3E40"/>
</svg>
