<svg width="100" height="100" viewBox="0 0 100 100" fill="none" xmlns="http://www.w3.org/2000/svg">
<path fill-rule="evenodd" clip-rule="evenodd" d="M78.7276 17.1149C80.9953 16.1413 83.9682 15.3556 86.7826 15.3556C89.5969 15.3556 92.5698 16.1413 94.8375 17.1149C95.9735 17.6026 97.0125 18.1714 97.8032 18.775C98.1957 19.0748 98.5847 19.4265 98.8922 19.8299C99.18 20.2073 99.541 20.8194 99.541 21.6V28.1334H95.7632V21.9889C95.7033 21.9328 95.6209 21.8618 95.5106 21.7777C95.0445 21.4218 94.3035 20.9969 93.3472 20.5863C91.4301 19.7632 88.9682 19.1334 86.7826 19.1334C84.5969 19.1334 82.135 19.7632 80.218 20.5863C79.2616 20.9969 78.5207 21.4218 78.0545 21.7777C77.9443 21.8618 77.8618 21.9328 77.8019 21.9889V28.1334H74.0241V21.6C74.0241 20.8194 74.3851 20.2073 74.6729 19.8299C74.9805 19.4265 75.3694 19.0748 75.762 18.775C76.5526 18.1714 77.5916 17.6026 78.7276 17.1149ZM77.6673 22.1344C77.667 22.1345 77.6696 22.1303 77.676 22.1219C77.6708 22.1302 77.6676 22.1344 77.6673 22.1344ZM95.8979 22.1344C95.8976 22.1344 95.8944 22.1302 95.8892 22.1219C95.8955 22.1303 95.8981 22.1345 95.8979 22.1344Z" fill="#6D6E70"/>
<path fill-rule="evenodd" clip-rule="evenodd" d="M86.7826 3.88892C85.555 3.88892 84.3769 4.37743 83.5078 5.24806C82.6386 6.11881 82.1497 7.30051 82.1497 8.53337V10.7111C82.1497 11.944 82.6386 13.1257 83.5078 13.9964C84.3769 14.8671 85.555 15.3556 86.7826 15.3556C88.0102 15.3556 89.1882 14.8671 90.0573 13.9964C90.9265 13.1257 91.4154 11.944 91.4154 10.7111V8.53337C91.4154 7.30051 90.9265 6.11881 90.0573 5.24806C89.1882 4.37743 88.0102 3.88892 86.7826 3.88892ZM80.8342 2.57914C82.4112 0.999301 84.5509 0.111145 86.7826 0.111145C89.0143 0.111145 91.1539 0.999301 92.731 2.57914C94.3079 4.15887 95.1932 6.30073 95.1932 8.53337V10.7111C95.1932 12.9438 94.3079 15.0856 92.731 16.6654C91.1539 18.2452 89.0143 19.1334 86.7826 19.1334C84.5509 19.1334 82.4112 18.2452 80.8342 16.6654C79.2573 15.0856 78.3719 12.9438 78.3719 10.7111V8.53337C78.3719 6.30073 79.2573 4.15887 80.8342 2.57914Z" fill="#6D6E70"/>
<path fill-rule="evenodd" clip-rule="evenodd" d="M78.7276 86.8038C80.9953 85.8302 83.9682 85.0445 86.7826 85.0445C89.5969 85.0445 92.5698 85.8302 94.8375 86.8038C95.9735 87.2915 97.0125 87.8603 97.8032 88.4639C98.1957 88.7637 98.5847 89.1154 98.8922 89.5188C99.18 89.8963 99.541 90.5083 99.541 91.2889V97.8223H95.7632V91.6778C95.7033 91.6217 95.6209 91.5507 95.5106 91.4666C95.0445 91.1107 94.3035 90.6858 93.3472 90.2752C91.4301 89.4521 88.9682 88.8223 86.7826 88.8223C84.5969 88.8223 82.135 89.4521 80.218 90.2752C79.2616 90.6858 78.5207 91.1107 78.0545 91.4666C77.9443 91.5507 77.8618 91.6217 77.8019 91.6778V97.8223H74.0241V91.2889C74.0241 90.5083 74.3851 89.8963 74.6729 89.5188C74.9805 89.1154 75.3694 88.7637 75.762 88.4639C76.5526 87.8603 77.5916 87.2915 78.7276 86.8038ZM77.6673 91.8233C77.667 91.8234 77.6696 91.8192 77.676 91.8108C77.6708 91.8191 77.6676 91.8233 77.6673 91.8233ZM95.8978 91.8233C95.8976 91.8233 95.8944 91.8191 95.8891 91.8108C95.8955 91.8192 95.8981 91.8234 95.8978 91.8233Z" fill="#6D6E70"/>
<path fill-rule="evenodd" clip-rule="evenodd" d="M86.7826 73.5778C85.555 73.5778 84.3769 74.0663 83.5078 74.937C82.6386 75.8077 82.1497 76.9894 82.1497 78.2223V80.4C82.1497 81.6329 82.6386 82.8146 83.5078 83.6854C84.3769 84.556 85.555 85.0445 86.7826 85.0445C88.0102 85.0445 89.1882 84.556 90.0573 83.6854C90.9265 82.8146 91.4154 81.6329 91.4154 80.4V78.2223C91.4154 76.9894 90.9265 75.8077 90.0573 74.937C89.1882 74.0663 88.0102 73.5778 86.7826 73.5778ZM80.8342 72.2681C82.4112 70.6882 84.5509 69.8 86.7826 69.8C89.0143 69.8 91.1539 70.6882 92.731 72.2681C94.3079 73.8478 95.1932 75.9896 95.1932 78.2223V80.4C95.1932 82.6327 94.3079 84.7745 92.731 86.3543C91.1539 87.9341 89.0143 88.8223 86.7826 88.8223C84.5509 88.8223 82.4112 87.9341 80.8342 86.3543C79.2573 84.7745 78.3719 82.6327 78.3719 80.4V78.2223C78.3719 75.9896 79.2573 73.8478 80.8342 72.2681Z" fill="#6D6E70"/>
<path fill-rule="evenodd" clip-rule="evenodd" d="M38.2872 24.1882C43.7968 21.902 49.8595 21.3038 55.7087 22.4693C61.5578 23.6349 66.9301 26.5117 71.1464 30.7355C75.3627 34.9593 78.2336 40.3402 79.3967 46.1978C80.5598 52.0554 79.9629 58.127 77.6813 63.6449C75.3998 69.1628 71.5359 73.8796 66.5777 77.1984C61.6216 80.5159 55.7947 82.2875 49.8335 82.2889C45.8657 82.3189 41.9315 81.5583 38.2599 80.0515C34.5859 78.5438 31.2484 76.319 28.4413 73.507C25.6343 70.695 23.4139 67.3518 21.9092 63.6723C20.4054 59.995 19.6465 56.0551 19.6764 52.0816C19.6778 46.1119 21.4455 40.2762 24.7566 35.312C28.0691 30.3457 32.7777 26.4744 38.2872 24.1882ZM54.9704 26.1743C49.8554 25.155 44.5535 25.6781 39.7351 27.6775C34.9166 29.6769 30.7977 33.0631 27.8995 37.4082C25.0013 41.7534 23.4541 46.8624 23.4541 52.0889L23.4541 52.1036C23.4271 55.5795 24.0906 59.026 25.4059 62.2424C26.7212 65.4588 28.6619 68.3807 31.115 70.8381C33.568 73.2955 36.4844 75.2393 39.6941 76.5566C42.9039 77.8738 46.343 78.5382 49.8114 78.5112L49.8261 78.5112C55.0413 78.5112 60.1396 76.9619 64.4763 74.0591C68.8131 71.1562 72.1938 67.0298 74.1902 62.2014C76.1867 57.3729 76.7091 52.0596 75.6912 46.9336C74.6734 41.8075 72.1612 37.0994 68.4727 33.4044C64.7843 29.7094 60.0854 27.1935 54.9704 26.1743Z" fill="#FFD503"/>
<path fill-rule="evenodd" clip-rule="evenodd" d="M89.0712 29.3676C92.2741 34.9222 94.2727 41.0903 94.9369 47.47C95.6011 53.8497 94.916 60.2981 92.9262 66.395L89.3348 65.2229C91.1602 59.6298 91.7887 53.714 91.1794 47.8612C90.5701 42.0084 88.7366 36.35 85.7985 31.2547L89.0712 29.3676Z" fill="#6D6E70"/>
<path fill-rule="evenodd" clip-rule="evenodd" d="M3.88886 21.9889V28.1334H0.111084V21.6C0.111084 20.8194 0.472101 20.2073 0.759862 19.8299C1.06745 19.4265 1.45636 19.0748 1.84894 18.775C2.63958 18.1714 3.67856 17.6026 4.81457 17.1149C7.08232 16.1413 10.0552 15.3556 12.8695 15.3556C15.6839 15.3556 18.6568 16.1413 20.9245 17.1149C22.0605 17.6026 23.0995 18.1714 23.8901 18.775C24.2827 19.0748 24.6716 19.4265 24.9792 19.8299C25.267 20.2073 25.628 20.8194 25.628 21.6V28.1334H21.8502V21.9889C21.7903 21.9328 21.7078 21.8618 21.5976 21.7777C21.1314 21.4218 20.3905 20.9969 19.4341 20.5863C17.5171 19.7632 15.0552 19.1334 12.8695 19.1334C10.6839 19.1334 8.22197 19.7632 6.30494 20.5863C5.34856 20.9969 4.60765 21.4218 4.1415 21.7777C4.03125 21.8618 3.94879 21.9328 3.88886 21.9889ZM3.75426 22.1344C3.75397 22.1345 3.75658 22.1303 3.76296 22.1219C3.75774 22.1302 3.75455 22.1344 3.75426 22.1344ZM21.9848 22.1344C21.9845 22.1344 21.9813 22.1302 21.9761 22.1219C21.9825 22.1303 21.9851 22.1345 21.9848 22.1344Z" fill="#6D6E70"/>
<path fill-rule="evenodd" clip-rule="evenodd" d="M12.7547 0.114636C12.8312 0.109982 12.9079 0.109982 12.9843 0.114636C15.1417 0.245977 17.176 1.16374 18.7034 2.69388C20.2307 4.22394 21.1457 6.26045 21.2767 8.41899C21.279 8.45707 21.2801 8.49522 21.2801 8.53337V10.7111C21.2801 10.7493 21.279 10.7874 21.2767 10.8255C21.1457 12.9841 20.2307 15.0206 18.7034 16.5506C17.176 18.0808 15.1417 18.9985 12.9843 19.1299C12.9079 19.1345 12.8312 19.1345 12.7547 19.1299C10.5973 18.9985 8.56308 18.0808 7.03566 16.5506C5.50832 15.0206 4.5933 12.9841 4.46236 10.8255C4.46005 10.7874 4.45889 10.7493 4.45889 10.7111V8.53337C4.45889 8.49522 4.46005 8.45707 4.46236 8.41899C4.5933 6.26045 5.50832 4.22394 7.03566 2.69388C8.56308 1.16374 10.5973 0.245977 12.7547 0.114636ZM12.8695 3.89373C11.6777 3.99354 10.5576 4.513 9.70932 5.3628C8.84617 6.22748 8.32335 7.37526 8.23667 8.59511V10.6494C8.32335 11.8692 8.84617 13.017 9.70932 13.8817C10.5576 14.7315 11.6777 15.251 12.8695 15.3508C14.0613 15.251 15.1814 14.7315 16.0297 13.8817C16.8929 13.017 17.4157 11.8692 17.5024 10.6494V8.59512C17.4157 7.37526 16.8929 6.22748 16.0297 5.3628C15.1814 4.513 14.0613 3.99354 12.8695 3.89373Z" fill="#6D6E70"/>
<path fill-rule="evenodd" clip-rule="evenodd" d="M3.88886 91.6778V97.8223H0.111084V91.2889C0.111084 90.5083 0.4721 89.8963 0.759862 89.5188C1.06745 89.1154 1.45636 88.7637 1.84894 88.4639C2.63958 87.8603 3.67856 87.2915 4.81457 86.8038C7.08232 85.8302 10.0552 85.0445 12.8695 85.0445C15.6839 85.0445 18.6568 85.8302 20.9245 86.8038C22.0605 87.2915 23.0995 87.8603 23.8901 88.4639C24.2827 88.7637 24.6716 89.1154 24.9792 89.5188C25.267 89.8963 25.628 90.5083 25.628 91.2889V97.8223H21.8502V91.6778C21.7903 91.6217 21.7078 91.5507 21.5976 91.4666C21.1314 91.1107 20.3905 90.6858 19.4341 90.2752C17.5171 89.4521 15.0552 88.8223 12.8695 88.8223C10.6839 88.8223 8.22197 89.4521 6.30494 90.2752C5.34856 90.6858 4.60765 91.1107 4.1415 91.4666C4.03126 91.5507 3.94879 91.6217 3.88886 91.6778ZM3.75426 91.8233C3.75397 91.8234 3.75658 91.8192 3.76296 91.8108C3.75774 91.8191 3.75455 91.8233 3.75426 91.8233ZM21.9848 91.8233C21.9845 91.8233 21.9813 91.8191 21.9761 91.8108C21.9825 91.8192 21.9851 91.8234 21.9848 91.8233Z" fill="#6D6E70"/>
<path fill-rule="evenodd" clip-rule="evenodd" d="M12.7547 69.8035C12.8312 69.7989 12.9079 69.7989 12.9843 69.8035C15.1417 69.9349 17.176 70.8526 18.7034 72.3828C20.2307 73.9128 21.1457 75.9494 21.2767 78.1079C21.279 78.146 21.2801 78.1841 21.2801 78.2223V80.4C21.2801 80.4382 21.279 80.4763 21.2767 80.5144C21.1457 82.673 20.2307 84.7095 18.7034 86.2395C17.176 87.7697 15.1417 88.6874 12.9843 88.8188C12.9079 88.8234 12.8312 88.8234 12.7547 88.8188C10.5973 88.6874 8.56308 87.7697 7.03566 86.2395C5.50832 84.7095 4.5933 82.673 4.46236 80.5144C4.46005 80.4763 4.45889 80.4382 4.45889 80.4V78.2223C4.45889 78.1841 4.46005 78.146 4.46236 78.1079C4.5933 75.9494 5.50832 73.9128 7.03566 72.3828C8.56308 70.8526 10.5973 69.9349 12.7547 69.8035ZM12.8695 73.5826C11.6777 73.6824 10.5576 74.2019 9.70932 75.0517C8.84617 75.9164 8.32335 77.0642 8.23667 78.284V80.3383C8.32335 81.5582 8.84617 82.7059 9.70932 83.5706C10.5576 84.4204 11.6777 84.9399 12.8695 85.0397C14.0613 84.9399 15.1814 84.4204 16.0297 83.5706C16.8929 82.7059 17.4157 81.5582 17.5024 80.3383V78.284C17.4157 77.0642 16.8929 75.9164 16.0297 75.0517C15.1814 74.2019 14.0613 73.6824 12.8695 73.5826Z" fill="#6D6E70"/>
<path fill-rule="evenodd" clip-rule="evenodd" d="M13.8537 31.2547C10.9157 36.35 9.0822 42.0084 8.47287 47.8612C7.86353 53.714 8.49205 59.6298 10.3174 65.2229L6.72606 66.395C4.73629 60.2981 4.05121 53.8497 4.7154 47.47C5.37959 41.0903 7.37816 34.9222 10.581 29.3676L13.8537 31.2547Z" fill="#6D6E70"/>
<path fill-rule="evenodd" clip-rule="evenodd" d="M49.6087 97.5334C42.5987 97.5341 35.685 95.8999 29.4151 92.7601L31.1066 89.3822C36.8516 92.2591 43.186 93.7563 49.6084 93.7556H50.0434C56.4659 93.7563 62.8006 92.2591 68.5455 89.3822L70.237 92.7601C63.9671 95.8999 57.0534 97.5341 50.0434 97.5334M49.6087 97.5334C49.6086 97.5334 49.6087 97.5334 49.6087 97.5334V97.5334ZM50.0434 97.5334H49.6087H50.0434Z" fill="#6D6E70"/>
<path fill-rule="evenodd" clip-rule="evenodd" d="M49.8261 10.4222C42.523 10.4255 35.3508 12.3655 29.0382 16.0452L27.1357 12.7815C34.0253 8.76537 41.8537 6.64788 49.8253 6.64447L49.8261 8.53336L49.8269 6.64447C57.7985 6.64788 65.6269 8.76537 72.5165 12.7815L70.6139 16.0452C64.3014 12.3655 57.1291 10.4255 49.8261 10.4222Z" fill="#6D6E70"/>
<path fill-rule="evenodd" clip-rule="evenodd" d="M40.7295 32.9642C38.1505 37.7623 36.4976 44.5205 36.4976 52.0889C36.4976 59.6573 38.1505 66.4155 40.7295 71.2136C43.3503 76.0894 46.6535 78.5111 49.8261 78.5111C52.9987 78.5111 56.3018 76.0894 58.9226 71.2136C61.5016 66.4155 63.1546 59.6573 63.1546 52.0889C63.1546 44.5205 61.5016 37.7623 58.9226 32.9642C56.3018 28.0884 52.9987 25.6667 49.8261 25.6667C46.6535 25.6667 43.3503 28.0884 40.7295 32.9642ZM37.402 31.1756C40.2888 25.8048 44.5943 21.8889 49.8261 21.8889C55.0578 21.8889 59.3633 25.8048 62.2502 31.1756C65.1788 36.6242 66.9323 44.0215 66.9323 52.0889C66.9323 60.1563 65.1788 67.5536 62.2502 73.0022C59.3633 78.373 55.0578 82.2889 49.8261 82.2889C44.5943 82.2889 40.2888 78.373 37.402 73.0022C34.4733 67.5536 32.7198 60.1563 32.7198 52.0889C32.7198 44.0215 34.4733 36.6242 37.402 31.1756Z" fill="#FFD503"/>
<path fill-rule="evenodd" clip-rule="evenodd" d="M23.7391 39.3112H75.913V43.0889H23.7391V39.3112Z" fill="#FFD503"/>
<path fill-rule="evenodd" clip-rule="evenodd" d="M23.7391 61.0889H75.913V64.8667H23.7391V61.0889Z" fill="#FFD503"/>
<path fill-rule="evenodd" clip-rule="evenodd" d="M47.9372 80.4001V23.7778H51.7149V80.4001H47.9372Z" fill="#FFD503"/>
</svg>
