<svg width="192" height="192" viewBox="0 0 192 192" fill="none" xmlns="http://www.w3.org/2000/svg">
<g clip-path="url(#clip0_1567_50)">
<path d="M192 0H0V192H192V0Z" fill="#FAC13C"/>
<path d="M42.1759 106.145C42.1759 106.308 42.1317 106.449 42.0433 106.568C41.9549 106.671 41.7928 106.76 41.557 106.835C41.336 106.909 41.0339 106.961 40.6508 106.99C40.2676 107.035 39.7739 107.057 39.1698 107.057C38.5361 107.057 38.0203 107.035 37.6225 106.99C37.2393 106.961 36.9299 106.909 36.6941 106.835C36.4583 106.746 36.2815 106.634 36.1636 106.501C36.0457 106.353 35.9573 106.175 35.8983 105.967L33.5995 99.5592C33.2753 98.6248 32.9363 97.8461 32.5827 97.2231C32.229 96.5853 31.8385 96.0736 31.4111 95.6879C30.9838 95.2874 30.4975 95.0056 29.9523 94.8425C29.407 94.6793 28.7955 94.5977 28.1176 94.5977H26.8134V106.123C26.8134 106.286 26.7692 106.427 26.6808 106.545C26.5924 106.649 26.4377 106.746 26.2166 106.835C25.9956 106.909 25.7009 106.961 25.3324 106.99C24.964 107.035 24.4925 107.057 23.9178 107.057C23.3578 107.057 22.8862 107.035 22.5031 106.99C22.1347 106.961 21.84 106.909 21.6189 106.835C21.3979 106.746 21.2358 106.649 21.1326 106.545C21.0442 106.427 21 106.286 21 106.123L21 78.9122C21 78.749 21.0442 78.6156 21.1326 78.5117C21.2358 78.3931 21.3979 78.2967 21.6189 78.2225C21.84 78.1483 22.1347 78.0964 22.5031 78.0667C22.8862 78.0222 23.3578 78 23.9178 78C24.4925 78 24.964 78.0222 25.3324 78.0667C25.7009 78.0964 25.9956 78.1483 26.2166 78.2225C26.4377 78.2967 26.5924 78.3931 26.6808 78.5117C26.7692 78.6156 26.8134 78.749 26.8134 78.9122V89.7252H28.1176C28.7807 89.7252 29.3628 89.6362 29.8638 89.4582C30.3649 89.2802 30.8143 88.9984 31.2122 88.6127C31.6248 88.2271 31.9932 87.7302 32.3174 87.1221C32.6564 86.4991 32.9805 85.7352 33.29 84.8304L35.2131 79.0902C35.2868 78.8825 35.3752 78.712 35.4783 78.5785C35.5815 78.4301 35.7436 78.3189 35.9646 78.2447C36.2004 78.1557 36.5025 78.0964 36.8709 78.0667C37.2541 78.0222 37.7625 78 38.3961 78C38.9708 78 39.4424 78.0222 39.8108 78.0667C40.1939 78.0964 40.4887 78.1483 40.695 78.2225C40.916 78.2818 41.0634 78.3708 41.137 78.4895C41.2107 78.5933 41.2476 78.7268 41.2476 78.89C41.2476 79.0828 41.2107 79.3201 41.137 79.6019C41.0781 79.8837 40.9676 80.2546 40.8055 80.7144L38.8824 85.8316C38.5287 86.7809 38.1751 87.5893 37.8214 88.2568C37.4677 88.9242 37.092 89.4953 36.6941 89.9699C36.3109 90.4297 35.8983 90.808 35.4562 91.1046C35.0289 91.4013 34.55 91.646 34.0195 91.8388V91.8611C34.6089 92.1132 35.1394 92.4025 35.611 92.7288C36.0973 93.0403 36.5467 93.4408 36.9593 93.9302C37.3867 94.4197 37.7919 95.0204 38.1751 95.7324C38.5582 96.4444 38.9487 97.3195 39.3466 98.3578L41.6897 104.321C41.9254 104.929 42.0654 105.351 42.1096 105.589C42.1538 105.811 42.1759 105.997 42.1759 106.145Z" fill="#3F3E40"/>
<path d="M65.4518 96.0439C65.4518 97.7348 65.2308 99.2774 64.7887 100.672C64.3466 102.066 63.6761 103.267 62.7772 104.276C61.8783 105.285 60.751 106.063 59.3952 106.612C58.0395 107.161 56.4553 107.435 54.6428 107.435C52.8892 107.435 51.364 107.191 50.0672 106.701C48.7704 106.212 47.6947 105.5 46.84 104.565C45.9853 103.631 45.3516 102.481 44.939 101.117C44.5264 99.7521 44.3201 98.1946 44.3201 96.4444C44.3201 94.7535 44.5411 93.2109 44.9832 91.8166C45.44 90.4075 46.1179 89.2061 47.0168 88.2123C47.9157 87.2036 49.0357 86.4249 50.3767 85.8761C51.7324 85.3273 53.3165 85.0529 55.1291 85.0529C56.8974 85.0529 58.43 85.2977 59.7268 85.7871C61.0236 86.2618 62.092 86.9663 62.9319 87.9008C63.7866 88.8352 64.4203 89.9848 64.8329 91.3494C65.2455 92.714 65.4518 94.2788 65.4518 96.0439ZM59.7268 96.2664C59.7268 95.2874 59.6457 94.3901 59.4836 93.5743C59.3363 92.7436 59.0784 92.0243 58.71 91.4161C58.3416 90.808 57.8479 90.3333 57.229 89.9922C56.6248 89.651 55.8585 89.4805 54.9301 89.4805C54.1049 89.4805 53.3828 89.6362 52.7639 89.9477C52.145 90.2443 51.6366 90.6893 51.2387 91.2826C50.8408 91.8611 50.5388 92.5656 50.3324 93.3963C50.1409 94.2121 50.0451 95.1465 50.0451 96.1996C50.0451 97.1786 50.1261 98.0834 50.2882 98.914C50.4503 99.7298 50.7082 100.442 51.0619 101.05C51.4303 101.658 51.924 102.133 52.5429 102.474C53.1618 102.8 53.9281 102.963 54.8417 102.963C55.6817 102.963 56.4111 102.815 57.0301 102.518C57.649 102.207 58.1574 101.762 58.5553 101.183C58.9531 100.605 59.2479 99.9078 59.4394 99.092C59.631 98.2614 59.7268 97.3195 59.7268 96.2664Z" fill="#3F3E40"/>
<path d="M89.7224 95.9549C89.7224 97.72 89.5308 99.3145 89.1477 100.738C88.7792 102.148 88.234 103.349 87.5119 104.343C86.7899 105.337 85.8909 106.1 84.8152 106.634C83.7395 107.168 82.509 107.435 81.1238 107.435C80.5491 107.435 80.0186 107.376 79.5323 107.257C79.0607 107.154 78.5965 106.99 78.1397 106.768C77.6976 106.531 77.2555 106.241 76.8134 105.9C76.3714 105.559 75.9145 105.159 75.443 104.699V114.043C75.443 114.192 75.3988 114.325 75.3103 114.444C75.2219 114.562 75.0672 114.659 74.8462 114.733C74.6398 114.822 74.3599 114.889 74.0062 114.933C73.6525 114.978 73.2031 115 72.6578 115C72.1126 115 71.6631 114.978 71.3095 114.933C70.9558 114.889 70.6684 114.822 70.4474 114.733C70.2411 114.659 70.0937 114.562 70.0053 114.444C69.9169 114.325 69.8727 114.192 69.8727 114.043V86.3211C69.8727 86.1728 69.9095 86.0467 69.9832 85.9429C70.0569 85.8242 70.1821 85.7278 70.359 85.6536C70.5505 85.5795 70.7937 85.5276 71.0884 85.4979C71.3979 85.4534 71.781 85.4311 72.2378 85.4311C72.6799 85.4311 73.0483 85.4534 73.3431 85.4979C73.6525 85.5276 73.8957 85.5795 74.0725 85.6536C74.2641 85.7278 74.3967 85.8242 74.4704 85.9429C74.5441 86.0467 74.5809 86.1728 74.5809 86.3211V88.6572C75.1556 88.0639 75.7156 87.5448 76.2608 87.0998C76.8208 86.64 77.3882 86.2618 77.9629 85.9651C78.5376 85.6536 79.127 85.4237 79.7312 85.2754C80.3501 85.1271 81.0059 85.0529 81.6985 85.0529C83.1426 85.0529 84.3731 85.3422 85.3899 85.9206C86.4067 86.4843 87.2319 87.263 87.8656 88.2568C88.514 89.2506 88.9856 90.4075 89.2803 91.7276C89.575 93.0477 89.7224 94.4568 89.7224 95.9549ZM83.931 96.3554C83.931 95.5099 83.8647 94.7015 83.7321 93.9302C83.6142 93.1441 83.4005 92.447 83.0911 91.8388C82.7963 91.2307 82.3985 90.7486 81.8974 90.3927C81.4111 90.0218 80.7996 89.8364 80.0628 89.8364C79.6944 89.8364 79.326 89.8958 78.9576 90.0144C78.6039 90.1183 78.2355 90.2963 77.8523 90.5484C77.4839 90.8006 77.1008 91.1269 76.7029 91.5274C76.305 91.9278 75.8851 92.4247 75.443 93.018V99.5592C76.224 100.553 76.9682 101.324 77.6755 101.873C78.3828 102.407 79.1197 102.674 79.8859 102.674C80.608 102.674 81.2196 102.489 81.7206 102.118C82.2364 101.747 82.6563 101.265 82.9805 100.672C83.3047 100.064 83.5405 99.3812 83.6879 98.6248C83.85 97.8683 83.931 97.1118 83.931 96.3554Z" fill="#3F3E40"/>
<path d="M108.821 88.0343C108.821 88.5238 108.798 88.9316 108.754 89.258C108.725 89.5843 108.673 89.8439 108.599 90.0367C108.526 90.2295 108.43 90.363 108.312 90.4372C108.209 90.5113 108.091 90.5484 107.958 90.5484H102.985V106.167C102.985 106.315 102.941 106.449 102.852 106.568C102.764 106.671 102.617 106.76 102.41 106.835C102.204 106.909 101.917 106.961 101.548 106.99C101.195 107.035 100.745 107.057 100.2 107.057C99.6693 107.057 99.2272 107.035 98.8736 106.99C98.5199 106.961 98.2325 106.909 98.0115 106.835C97.8052 106.76 97.6578 106.671 97.5694 106.568C97.4957 106.449 97.4589 106.315 97.4589 106.167V90.5484H92.4854C92.338 90.5484 92.2054 90.5113 92.0875 90.4372C91.9844 90.3482 91.896 90.2073 91.8223 90.0144C91.7486 89.8216 91.6897 89.5546 91.6454 89.2135C91.616 88.8723 91.6012 88.457 91.6012 87.9675C91.6012 87.5225 91.6233 87.1517 91.6675 86.8551C91.7118 86.5436 91.7707 86.2914 91.8444 86.0986C91.9181 85.9058 92.0065 85.7723 92.1096 85.6981C92.2128 85.6091 92.338 85.5646 92.4854 85.5646H107.958C108.091 85.5646 108.209 85.6091 108.312 85.6981C108.43 85.7723 108.526 85.9058 108.599 86.0986C108.673 86.2914 108.725 86.551 108.754 86.8773C108.798 87.1888 108.821 87.5745 108.821 88.0343Z" fill="#3F3E40"/>
<path d="M129.731 95.6657C129.731 96.348 129.576 96.8523 129.267 97.1786C128.972 97.5049 128.56 97.6681 128.029 97.6681H116.027C116.027 98.5135 116.122 99.2848 116.314 99.982C116.52 100.664 116.837 101.25 117.264 101.74C117.706 102.214 118.266 102.578 118.944 102.83C119.637 103.082 120.462 103.208 121.42 103.208C122.393 103.208 123.247 103.141 123.984 103.008C124.721 102.859 125.355 102.704 125.885 102.541C126.43 102.363 126.88 102.207 127.233 102.073C127.587 101.925 127.874 101.851 128.095 101.851C128.228 101.851 128.339 101.881 128.427 101.94C128.515 101.984 128.589 102.073 128.648 102.207C128.707 102.34 128.744 102.533 128.759 102.785C128.788 103.023 128.803 103.327 128.803 103.698C128.803 104.024 128.795 104.306 128.781 104.543C128.766 104.765 128.744 104.958 128.714 105.121C128.685 105.285 128.641 105.426 128.582 105.544C128.523 105.648 128.442 105.752 128.339 105.856C128.25 105.96 127.992 106.1 127.565 106.278C127.138 106.456 126.592 106.634 125.929 106.812C125.266 106.976 124.507 107.116 123.653 107.235C122.798 107.369 121.884 107.435 120.912 107.435C119.158 107.435 117.618 107.213 116.292 106.768C114.98 106.323 113.882 105.648 112.998 104.743C112.114 103.838 111.451 102.696 111.009 101.317C110.581 99.9375 110.368 98.3207 110.368 96.4666C110.368 94.7015 110.596 93.1145 111.053 91.7054C111.51 90.2814 112.173 89.08 113.042 88.101C113.912 87.1072 114.966 86.3508 116.203 85.8316C117.456 85.3125 118.863 85.0529 120.425 85.0529C122.076 85.0529 123.483 85.2977 124.647 85.7871C125.826 86.2766 126.791 86.9589 127.543 87.834C128.294 88.6943 128.847 89.7178 129.201 90.9044C129.554 92.091 129.731 93.3814 129.731 94.7757V95.6657ZM124.338 94.0637C124.382 92.4915 124.065 91.2604 123.387 90.3704C122.724 89.4656 121.693 89.0132 120.293 89.0132C119.585 89.0132 118.966 89.1467 118.436 89.4137C117.92 89.6807 117.485 90.0441 117.132 90.5039C116.793 90.9489 116.528 91.4829 116.336 92.1058C116.159 92.714 116.056 93.3666 116.027 94.0637H124.338Z" fill="#3F3E40"/>
<path d="M152.852 106.39C152.852 106.508 152.808 106.612 152.72 106.701C152.646 106.775 152.506 106.842 152.3 106.901C152.093 106.946 151.806 106.983 151.438 107.013C151.084 107.042 150.635 107.057 150.089 107.057C149.47 107.057 148.962 107.042 148.564 107.013C148.166 106.983 147.849 106.946 147.614 106.901C147.378 106.842 147.208 106.76 147.105 106.657C147.002 106.553 146.921 106.427 146.862 106.278L145.027 101.539C144.806 100.902 144.563 100.368 144.298 99.9375C144.047 99.5073 143.767 99.1662 143.458 98.914C143.149 98.647 142.795 98.4616 142.397 98.3578C141.999 98.2391 141.542 98.1798 141.027 98.1798H139.899V106.278C139.899 106.382 139.848 106.486 139.744 106.59C139.641 106.679 139.479 106.76 139.258 106.835C139.037 106.909 138.75 106.961 138.396 106.99C138.042 107.035 137.615 107.057 137.114 107.057C136.598 107.057 136.164 107.035 135.81 106.99C135.456 106.961 135.169 106.909 134.948 106.835C134.727 106.76 134.565 106.679 134.462 106.59C134.373 106.486 134.329 106.382 134.329 106.278V86.1876C134.329 86.0838 134.373 85.9874 134.462 85.8984C134.565 85.7945 134.727 85.713 134.948 85.6536C135.169 85.5795 135.456 85.5276 135.81 85.4979C136.164 85.4534 136.598 85.4311 137.114 85.4311C137.615 85.4311 138.042 85.4534 138.396 85.4979C138.75 85.5276 139.037 85.5795 139.258 85.6536C139.479 85.713 139.641 85.7945 139.744 85.8984C139.848 85.9874 139.899 86.0838 139.899 86.1876V93.908H141.027C141.483 93.908 141.896 93.8561 142.264 93.7523C142.633 93.6336 142.964 93.4482 143.259 93.196C143.569 92.929 143.849 92.5805 144.099 92.1503C144.364 91.7202 144.615 91.1862 144.851 90.5484L146.508 86.2766C146.553 86.1283 146.626 86.0022 146.729 85.8984C146.833 85.7797 146.987 85.6907 147.194 85.6314C147.415 85.5572 147.709 85.5053 148.078 85.4756C148.461 85.446 148.962 85.4311 149.581 85.4311C150.126 85.4311 150.568 85.446 150.907 85.4756C151.261 85.5053 151.533 85.5498 151.725 85.6091C151.931 85.6685 152.071 85.7426 152.145 85.8316C152.219 85.9058 152.256 86.0022 152.256 86.1209C152.256 86.2692 152.226 86.4472 152.167 86.6548C152.108 86.8625 152.005 87.1443 151.858 87.5003L150.288 91.2826C149.979 92.0391 149.647 92.6843 149.294 93.2183C148.955 93.7374 148.601 94.1676 148.233 94.5087C147.879 94.8499 147.518 95.1243 147.149 95.3319C146.781 95.5396 146.427 95.7027 146.088 95.8214V95.8659C146.545 96.0587 146.973 96.2664 147.37 96.4889C147.768 96.7114 148.144 97.0006 148.498 97.3566C148.866 97.7126 149.212 98.1575 149.537 98.6915C149.876 99.2107 150.207 99.8411 150.531 100.583L152.454 105.032C152.543 105.225 152.609 105.396 152.653 105.544C152.712 105.678 152.757 105.804 152.786 105.922C152.815 106.026 152.83 106.115 152.83 106.189C152.845 106.264 152.852 106.33 152.852 106.39Z" fill="#3F3E40"/>
<path d="M171 103.008C171 103.393 170.985 103.72 170.956 103.987C170.941 104.239 170.912 104.454 170.867 104.632C170.838 104.81 170.794 104.958 170.735 105.077C170.691 105.181 170.58 105.322 170.403 105.5C170.226 105.663 169.924 105.871 169.497 106.123C169.07 106.36 168.583 106.575 168.038 106.768C167.493 106.961 166.896 107.116 166.248 107.235C165.614 107.354 164.958 107.413 164.28 107.413C162.762 107.413 161.414 107.176 160.235 106.701C159.071 106.226 158.091 105.529 157.295 104.61C156.5 103.675 155.895 102.541 155.483 101.206C155.085 99.8707 154.886 98.343 154.886 96.6224C154.886 94.6348 155.129 92.9216 155.615 91.4829C156.116 90.0293 156.809 88.8278 157.693 87.8785C158.577 86.9292 159.624 86.2247 160.832 85.7649C162.04 85.3051 163.367 85.0752 164.811 85.0752C165.4 85.0752 165.975 85.1271 166.535 85.2309C167.11 85.3347 167.64 85.4756 168.126 85.6536C168.627 85.8316 169.07 86.0319 169.453 86.2544C169.851 86.4768 170.131 86.6697 170.293 86.8328C170.455 86.996 170.565 87.1369 170.624 87.2556C170.698 87.3594 170.749 87.5003 170.779 87.6783C170.823 87.8563 170.853 88.0788 170.867 88.3458C170.897 88.5979 170.912 88.9094 170.912 89.2802C170.912 90.1405 170.838 90.7486 170.691 91.1046C170.543 91.4458 170.352 91.6164 170.116 91.6164C169.865 91.6164 169.6 91.5125 169.32 91.3049C169.04 91.0972 168.709 90.8673 168.325 90.6152C167.942 90.363 167.485 90.1331 166.955 89.9254C166.424 89.7178 165.791 89.614 165.054 89.614C163.61 89.614 162.505 90.1776 161.738 91.3049C160.972 92.4173 160.589 94.0563 160.589 96.2219C160.589 97.2898 160.685 98.2317 160.876 99.0475C161.068 99.8633 161.348 100.546 161.716 101.094C162.099 101.643 162.571 102.059 163.131 102.34C163.706 102.607 164.369 102.741 165.12 102.741C165.887 102.741 166.542 102.63 167.088 102.407C167.648 102.17 168.134 101.91 168.546 101.628C168.959 101.347 169.305 101.094 169.585 100.872C169.865 100.635 170.101 100.516 170.293 100.516C170.425 100.516 170.536 100.553 170.624 100.627C170.713 100.701 170.779 100.842 170.823 101.05C170.882 101.243 170.926 101.495 170.956 101.806C170.985 102.118 171 102.518 171 103.008Z" fill="#3F3E40"/>
</g>
<defs>
<clipPath id="clip0_1567_50">
<rect width="192" height="192" fill="white"/>
</clipPath>
</defs>
</svg>
