<svg width="192" height="192" viewBox="0 0 192 192" fill="none" xmlns="http://www.w3.org/2000/svg">
<rect width="192" height="192" fill="#FAC13C"/>
<path d="M47.5308 108.214C47.5308 108.673 47.5124 109.067 47.4756 109.397C47.4572 109.709 47.4204 109.984 47.3652 110.222C47.31 110.442 47.2364 110.635 47.1444 110.8C47.0525 110.965 46.9053 111.157 46.7029 111.377C46.5006 111.579 46.105 111.845 45.5164 112.175C44.9461 112.505 44.2378 112.826 43.3916 113.137C42.5637 113.431 41.6071 113.678 40.5217 113.88C39.4547 114.082 38.2957 114.182 37.0448 114.182C34.598 114.182 32.3904 113.807 30.422 113.055C28.4536 112.303 26.7795 111.185 25.3998 109.699C24.02 108.196 22.9622 106.326 22.2264 104.089C21.4905 101.852 21.1226 99.248 21.1226 96.2776C21.1226 93.2522 21.5273 90.566 22.3367 88.219C23.1462 85.872 24.2776 83.9009 25.7309 82.3057C27.1842 80.7104 28.9227 79.5003 30.9463 78.6752C32.9883 77.8501 35.2327 77.4375 37.6794 77.4375C38.6728 77.4375 39.6295 77.52 40.5493 77.685C41.4691 77.8501 42.3154 78.0701 43.088 78.3451C43.8791 78.6018 44.5873 78.9044 45.2128 79.2527C45.8383 79.6011 46.2706 79.9037 46.5098 80.1604C46.7673 80.3987 46.9421 80.6004 47.0341 80.7655C47.1261 80.9305 47.1996 81.1413 47.2548 81.398C47.31 81.6547 47.3468 81.9573 47.3652 82.3057C47.402 82.654 47.4204 83.0849 47.4204 83.5983C47.4204 84.1484 47.402 84.616 47.3652 85.001C47.3284 85.3861 47.264 85.6978 47.172 85.9362C47.0801 86.1745 46.9697 86.3487 46.8409 86.4587C46.7121 86.5687 46.565 86.6237 46.3994 86.6237C46.1234 86.6237 45.7739 86.4679 45.3508 86.1562C44.9277 85.8261 44.3758 85.4686 43.6951 85.0835C43.0328 84.6802 42.2326 84.3226 41.2944 84.0109C40.3745 83.6808 39.2707 83.5158 37.983 83.5158C36.5664 83.5158 35.2971 83.8092 34.1749 84.3959C33.0711 84.9644 32.1237 85.7895 31.3326 86.8713C30.56 87.9348 29.9713 89.2274 29.5666 90.7493C29.1618 92.2712 28.9595 93.9856 28.9595 95.8925C28.9595 97.9828 29.171 99.798 29.5942 101.338C30.0357 102.86 30.652 104.116 31.443 105.106C32.2525 106.096 33.2183 106.839 34.3405 107.334C35.481 107.811 36.7596 108.049 38.1761 108.049C39.4639 108.049 40.5769 107.902 41.5151 107.609C42.4533 107.297 43.2536 106.958 43.9159 106.591C44.5965 106.225 45.1484 105.895 45.5715 105.601C46.0131 105.308 46.3534 105.161 46.5926 105.161C46.7765 105.161 46.9237 105.198 47.0341 105.271C47.1444 105.345 47.2364 105.491 47.31 105.711C47.3836 105.931 47.4388 106.243 47.4756 106.646C47.5124 107.032 47.5308 107.554 47.5308 108.214Z" fill="#3F3E40"/>
<path d="M77.2228 100.156C77.2228 102.246 76.9468 104.153 76.3949 105.876C75.843 107.6 75.006 109.085 73.8838 110.332C72.7616 111.579 71.3543 112.541 69.6618 113.22C67.9693 113.898 65.9917 114.238 63.7289 114.238C61.5397 114.238 59.6357 113.935 58.0168 113.33C56.3979 112.725 55.055 111.845 53.988 110.69C52.921 109.534 52.1299 108.113 51.6148 106.426C51.0997 104.74 50.8421 102.814 50.8421 100.651C50.8421 98.5604 51.1181 96.6534 51.67 94.9299C52.2403 93.188 53.0865 91.7028 54.2087 90.4743C55.3309 89.2274 56.729 88.2648 58.4031 87.5864C60.0956 86.908 62.0732 86.5687 64.336 86.5687C66.5436 86.5687 68.4568 86.8713 70.0757 87.4764C71.6946 88.0631 73.0284 88.9341 74.077 90.0892C75.144 91.2444 75.935 92.6654 76.4501 94.3523C76.9652 96.0392 77.2228 97.9736 77.2228 100.156ZM70.0757 100.431C70.0757 99.2205 69.9745 98.1111 69.7722 97.1027C69.5882 96.0759 69.2663 95.1866 68.8064 94.4348C68.3464 93.683 67.7302 93.0963 66.9575 92.6746C66.2033 92.2528 65.2466 92.042 64.0876 92.042C63.0574 92.042 62.156 92.2345 61.3834 92.6196C60.6107 92.9863 59.976 93.5364 59.4793 94.2698C58.9826 94.9849 58.6055 95.8558 58.3479 96.8826C58.1088 97.8911 57.9892 99.0463 57.9892 100.348C57.9892 101.558 58.0904 102.677 58.2927 103.704C58.4951 104.712 58.817 105.592 59.2586 106.344C59.7185 107.096 60.3348 107.682 61.1074 108.104C61.8801 108.508 62.8367 108.709 63.9773 108.709C65.0259 108.709 65.9365 108.526 66.7092 108.159C67.4818 107.774 68.1165 107.224 68.6132 106.509C69.1099 105.794 69.4778 104.932 69.717 103.924C69.9561 102.897 70.0757 101.732 70.0757 100.431Z" fill="#3F3E40"/>
<path d="M98.5535 90.4193C98.5535 91.0794 98.5352 91.6203 98.4984 92.042C98.4616 92.4637 98.4064 92.7938 98.3328 93.0321C98.2592 93.2705 98.158 93.4355 98.0292 93.5272C97.9189 93.6189 97.7717 93.6647 97.5877 93.6647C97.4406 93.6647 97.275 93.6372 97.091 93.5822C96.9071 93.5089 96.6955 93.4355 96.4563 93.3622C96.2356 93.2888 95.9872 93.2246 95.7113 93.1696C95.4353 93.0963 95.1318 93.0596 94.8007 93.0596C94.4143 93.0596 94.028 93.1421 93.6417 93.3072C93.2553 93.4538 92.8506 93.6922 92.4275 94.0223C92.0228 94.3523 91.5905 94.7924 91.1305 95.3424C90.689 95.8925 90.2107 96.5709 89.6956 97.3777V112.67C89.6956 112.853 89.6404 113.018 89.53 113.165C89.4197 113.293 89.2265 113.403 88.9506 113.495C88.693 113.587 88.3435 113.651 87.902 113.687C87.4604 113.742 86.8993 113.77 86.2187 113.77C85.538 113.77 84.9769 113.742 84.5354 113.687C84.0939 113.651 83.7351 113.587 83.4592 113.495C83.2016 113.403 83.0177 113.293 82.9073 113.165C82.7969 113.018 82.7417 112.853 82.7417 112.67V88.1365C82.7417 87.9531 82.7877 87.7972 82.8797 87.6689C82.9717 87.5222 83.1373 87.403 83.3764 87.3113C83.6156 87.2197 83.9191 87.1555 84.287 87.1188C84.6734 87.0638 85.1517 87.0363 85.722 87.0363C86.3107 87.0363 86.7982 87.0638 87.1845 87.1188C87.5708 87.1555 87.8652 87.2197 88.0675 87.3113C88.2883 87.403 88.4447 87.5222 88.5366 87.6689C88.6286 87.7972 88.6746 87.9531 88.6746 88.1365V91.1894C89.3185 90.2726 89.9256 89.5208 90.4959 88.9341C91.0662 88.329 91.6089 87.8522 92.124 87.5039C92.6391 87.1555 93.1542 86.9171 93.6693 86.7888C94.1844 86.6421 94.6995 86.5687 95.2146 86.5687C95.4537 86.5687 95.7113 86.5871 95.9872 86.6237C96.2632 86.6421 96.5483 86.6879 96.8427 86.7613C97.137 86.8163 97.3946 86.8896 97.6153 86.9813C97.8361 87.0546 97.9924 87.1372 98.0844 87.2288C98.1948 87.3205 98.2684 87.4214 98.3052 87.5314C98.3604 87.6414 98.4064 87.7972 98.4432 87.9989C98.48 88.1823 98.5076 88.4665 98.526 88.8516C98.5443 89.2366 98.5535 89.7592 98.5535 90.4193Z" fill="#3F3E40"/>
<path d="M117.401 110.249C117.401 111.056 117.346 111.68 117.235 112.12C117.143 112.541 117.014 112.844 116.849 113.027C116.683 113.192 116.435 113.348 116.104 113.495C115.791 113.623 115.414 113.733 114.972 113.825C114.549 113.935 114.08 114.017 113.565 114.072C113.068 114.127 112.563 114.155 112.047 114.155C110.668 114.155 109.472 113.981 108.46 113.632C107.448 113.284 106.611 112.752 105.949 112.037C105.287 111.304 104.799 110.387 104.486 109.287C104.174 108.187 104.017 106.885 104.017 105.381V92.8121H101.065C100.715 92.8121 100.448 92.6012 100.264 92.1795C100.08 91.7394 99.9885 91.0152 99.9885 90.0067C99.9885 89.475 100.007 89.0257 100.044 88.659C100.099 88.2923 100.172 88.0081 100.264 87.8064C100.356 87.5864 100.467 87.4305 100.596 87.3388C100.743 87.2472 100.908 87.2013 101.092 87.2013H104.017V81.7281C104.017 81.5447 104.063 81.3797 104.155 81.233C104.266 81.0863 104.45 80.9671 104.707 80.8755C104.983 80.7655 105.342 80.6921 105.783 80.6554C106.243 80.6004 106.804 80.5729 107.467 80.5729C108.147 80.5729 108.708 80.6004 109.15 80.6554C109.61 80.6921 109.969 80.7655 110.226 80.8755C110.484 80.9671 110.668 81.0863 110.778 81.233C110.888 81.3797 110.944 81.5447 110.944 81.7281V87.2013H116.297C116.481 87.2013 116.637 87.2472 116.766 87.3388C116.913 87.4305 117.033 87.5864 117.125 87.8064C117.217 88.0081 117.281 88.2923 117.318 88.659C117.373 89.0257 117.401 89.475 117.401 90.0067C117.401 91.0152 117.309 91.7394 117.125 92.1795C116.941 92.6012 116.674 92.8121 116.325 92.8121H110.944V104.336C110.944 105.675 111.155 106.683 111.578 107.362C112.001 108.022 112.756 108.352 113.841 108.352C114.209 108.352 114.54 108.324 114.834 108.269C115.129 108.196 115.386 108.123 115.607 108.049C115.846 107.957 116.039 107.884 116.187 107.829C116.352 107.756 116.499 107.719 116.628 107.719C116.739 107.719 116.84 107.756 116.932 107.829C117.042 107.884 117.125 108.012 117.18 108.214C117.235 108.398 117.281 108.654 117.318 108.984C117.373 109.314 117.401 109.736 117.401 110.249Z" fill="#3F3E40"/>
<path d="M144.444 99.688C144.444 100.531 144.251 101.155 143.864 101.558C143.496 101.962 142.981 102.163 142.319 102.163H127.335C127.335 103.209 127.454 104.162 127.694 105.024C127.951 105.867 128.347 106.591 128.88 107.197C129.432 107.783 130.131 108.233 130.977 108.544C131.842 108.856 132.872 109.012 134.068 109.012C135.282 109.012 136.349 108.929 137.269 108.764C138.189 108.581 138.98 108.388 139.642 108.187C140.323 107.967 140.884 107.774 141.325 107.609C141.767 107.426 142.126 107.334 142.402 107.334C142.567 107.334 142.705 107.371 142.816 107.444C142.926 107.499 143.018 107.609 143.092 107.774C143.165 107.939 143.211 108.178 143.23 108.489C143.266 108.783 143.285 109.158 143.285 109.617C143.285 110.02 143.276 110.369 143.257 110.662C143.239 110.937 143.211 111.175 143.174 111.377C143.138 111.579 143.082 111.753 143.009 111.9C142.935 112.028 142.834 112.156 142.705 112.285C142.595 112.413 142.273 112.587 141.739 112.807C141.206 113.027 140.525 113.247 139.697 113.467C138.87 113.669 137.922 113.843 136.855 113.99C135.788 114.155 134.648 114.238 133.433 114.238C131.244 114.238 129.322 113.962 127.666 113.412C126.029 112.862 124.658 112.028 123.554 110.91C122.451 109.791 121.623 108.379 121.071 106.674C120.537 104.969 120.271 102.97 120.271 100.678C120.271 98.4962 120.556 96.5343 121.126 94.7924C121.696 93.0321 122.524 91.5469 123.61 90.3368C124.695 89.1083 126.01 88.1731 127.556 87.5314C129.119 86.8896 130.876 86.5687 132.826 86.5687C134.887 86.5687 136.644 86.8713 138.097 87.4764C139.569 88.0814 140.774 88.9249 141.712 90.0067C142.65 91.0702 143.34 92.3354 143.781 93.8022C144.223 95.2691 144.444 96.8643 144.444 98.5879V99.688ZM137.711 97.7078C137.766 95.7642 137.37 94.2423 136.524 93.1421C135.696 92.0236 134.408 91.4644 132.661 91.4644C131.778 91.4644 131.005 91.6294 130.343 91.9595C129.699 92.2895 129.156 92.7387 128.715 93.3072C128.292 93.8572 127.96 94.5173 127.721 95.2874C127.5 96.0392 127.372 96.846 127.335 97.7078H137.711Z" fill="#3F3E40"/>
<path d="M170.686 112.175C170.833 112.486 170.898 112.743 170.879 112.945C170.879 113.147 170.751 113.312 170.493 113.44C170.236 113.568 169.84 113.651 169.307 113.687C168.773 113.742 168.065 113.77 167.182 113.77C166.354 113.77 165.682 113.752 165.167 113.715C164.671 113.697 164.275 113.651 163.981 113.577C163.705 113.486 163.493 113.385 163.346 113.275C163.217 113.147 163.116 112.991 163.043 112.807L158.489 104.089L153.936 112.807C153.863 112.991 153.762 113.147 153.633 113.275C153.504 113.385 153.302 113.486 153.026 113.577C152.768 113.651 152.4 113.697 151.922 113.715C151.444 113.752 150.818 113.77 150.045 113.77C149.236 113.77 148.592 113.742 148.114 113.687C147.635 113.651 147.286 113.568 147.065 113.44C146.844 113.312 146.725 113.147 146.706 112.945C146.706 112.743 146.789 112.486 146.955 112.175L153.771 100.101L147.479 88.769C147.314 88.439 147.222 88.164 147.203 87.9439C147.203 87.7056 147.323 87.5222 147.562 87.3939C147.801 87.2655 148.178 87.1738 148.693 87.1188C149.227 87.0638 149.944 87.0363 150.846 87.0363C151.655 87.0363 152.299 87.0546 152.777 87.0913C153.274 87.1096 153.66 87.1463 153.936 87.2013C154.212 87.2563 154.415 87.348 154.543 87.4764C154.672 87.5864 154.783 87.7331 154.875 87.9164L159.262 96.1125L163.622 87.9164C163.677 87.7697 163.76 87.6414 163.87 87.5314C163.981 87.4214 164.156 87.3297 164.395 87.2563C164.634 87.183 164.956 87.128 165.361 87.0913C165.784 87.0546 166.354 87.0363 167.071 87.0363C167.881 87.0363 168.525 87.0546 169.003 87.0913C169.5 87.128 169.849 87.2105 170.052 87.3388C170.272 87.4672 170.374 87.6506 170.355 87.8889C170.355 88.109 170.254 88.4023 170.052 88.769L163.926 99.9081L170.686 112.175Z" fill="#3F3E40"/>
</svg>
