<svg width="100" height="100" viewBox="0 0 100 100" fill="none" xmlns="http://www.w3.org/2000/svg">
<g clip-path="url(#clip0)">
<path fill-rule="evenodd" clip-rule="evenodd" d="M26.2946 0H76.7988C78.4279 0.0256589 79.9829 0.684288 81.135 1.83633C82.287 2.98837 82.9456 4.54346 82.9713 6.1725L82.9714 6.17798L82.9713 57.8052C82.9713 58.2716 82.786 58.7187 82.4563 59.0484C82.1266 59.3781 81.6795 59.5634 81.2132 59.5634H66.6086V74.8548H81.3072C81.7735 74.8548 82.2207 75.04 82.5504 75.3698C82.8801 75.6995 83.0653 76.1467 83.0653 76.613V93.822L83.0653 93.8275C83.0396 95.4565 82.3811 97.0116 81.2291 98.1637C80.077 99.3157 78.5219 99.9743 76.8928 100L76.8873 100H26.2946L26.2891 100C24.66 99.9743 23.1049 99.3157 21.9529 98.1637C20.8009 97.0116 20.1423 95.4565 20.1166 93.8275L20.1166 93.822V44.1696C20.1166 43.7033 20.3018 43.2561 20.6315 42.9264C20.9612 42.5967 21.4084 42.4115 21.8747 42.4115H44.0024V27.3081H21.8747C21.4084 27.3081 20.9612 27.1228 20.6315 26.7931C20.3018 26.4634 20.1166 26.0162 20.1166 25.5499V6.1725C20.1422 4.54346 20.8009 2.98837 21.9529 1.83633C23.1049 0.684288 24.66 0.025702 26.2891 4.31201e-05L26.2946 0ZM26.2973 0.695134C24.8498 0.718633 23.4682 1.30413 22.4444 2.32786C21.4207 3.35159 20.8352 4.73325 20.8117 6.18075V25.5499C20.8117 25.8319 20.9237 26.1022 21.1231 26.3016C21.3224 26.5009 21.5928 26.6129 21.8747 26.6129H44.6976V43.1066H21.8747C21.5928 43.1066 21.3224 43.2186 21.1231 43.4179C20.9237 43.6173 20.8117 43.8877 20.8117 44.1696V93.8193C20.8352 95.2668 21.4207 96.6484 22.4444 97.6721C23.4681 98.6958 24.8497 99.2813 26.2972 99.3049H76.8847C78.3322 99.2813 79.7138 98.6958 80.7375 97.6721C81.7613 96.6484 82.3467 95.2667 82.3702 93.8192V76.613C82.3702 76.331 82.2582 76.0606 82.0588 75.8613C81.8595 75.6619 81.5891 75.5499 81.3072 75.5499H65.9134V58.8682H81.2132C81.495 58.8682 81.7654 58.7562 81.9648 58.5568C82.1642 58.3575 82.2762 58.0871 82.2762 57.8052V6.18084C82.2527 4.73331 81.6672 3.35161 80.6434 2.32786C79.6197 1.30413 78.2381 0.718633 76.7906 0.695134H26.2973ZM23.9209 3.80434C24.5504 3.17482 25.4043 2.82116 26.2946 2.82116H76.7933C77.6836 2.82116 78.5374 3.17482 79.167 3.80434C79.7965 4.43387 80.1501 5.2877 80.1501 6.17798V56.7422H64.7564C64.4745 56.7422 64.2041 56.8542 64.0047 57.0536C63.8054 57.2529 63.6934 57.5233 63.6934 57.8052V76.613C63.6934 76.8949 63.8054 77.1652 64.0047 77.3646C64.2041 77.5639 64.4745 77.676 64.7564 77.676H80.1501V93.728C80.1501 94.1688 80.0633 94.6053 79.8946 95.0126C79.7259 95.4198 79.4787 95.7899 79.167 96.1016C78.8552 96.4133 78.4851 96.6606 78.0779 96.8292C77.6706 96.9979 77.2342 97.0848 76.7933 97.0848H26.2946C25.8537 97.0848 25.4172 96.9979 25.0099 96.8292C24.6027 96.6606 24.2326 96.4133 23.9209 96.1016C23.6092 95.7899 23.362 95.4198 23.1933 95.0126C23.0246 94.6053 22.9377 94.1688 22.9377 93.728V45.1371L45.5 45.2326C45.7817 45.2325 46.0524 45.1205 46.2517 44.9212C46.451 44.7219 46.563 44.4515 46.563 44.1696V25.5499C46.563 25.268 46.451 24.9977 46.2517 24.7983C46.0523 24.5989 45.7819 24.4869 45.5 24.4869H22.9377V6.17798C22.9377 5.2877 23.2914 4.43387 23.9209 3.80434ZM26.2946 3.51629C25.5886 3.51629 24.9116 3.79672 24.4125 4.29588C23.9133 4.79504 23.6329 5.47205 23.6329 6.17798V23.7918H45.5C45.9663 23.7918 46.4135 23.9771 46.7432 24.3068C47.0729 24.6365 47.2581 25.0836 47.2581 25.5499V44.1696C47.2581 44.6359 47.0729 45.0831 46.7432 45.4128C46.4135 45.7425 45.9663 45.9278 45.5 45.9278L45.4985 45.9278L23.6329 45.8352V93.728C23.6329 94.0775 23.7017 94.4236 23.8355 94.7466C23.9692 95.0695 24.1653 95.3629 24.4125 95.6101C24.6596 95.8572 24.953 96.0533 25.276 96.187C25.5989 96.3208 25.945 96.3896 26.2946 96.3896H76.7933C77.1429 96.3896 77.4889 96.3208 77.8119 96.187C78.1348 96.0533 78.4283 95.8572 78.6754 95.6101C78.9226 95.3629 79.1186 95.0695 79.2524 94.7466C79.3862 94.4236 79.455 94.0775 79.455 93.728V78.3711H64.7564C64.2901 78.3711 63.8429 78.1858 63.5132 77.8561C63.1835 77.5264 62.9982 77.0793 62.9982 76.613V57.8052C62.9982 57.3389 63.1835 56.8917 63.5132 56.562C63.8429 56.2323 64.2901 56.0471 64.7564 56.0471H79.455V6.17798C79.455 5.47205 79.1746 4.79504 78.6754 4.29588C78.1763 3.79672 77.4993 3.51629 76.7933 3.51629H26.2946Z" fill="#6D6E70"/>
<path fill-rule="evenodd" clip-rule="evenodd" d="M22.4444 2.32786C23.4682 1.30413 24.8498 0.718633 26.2973 0.695134H76.7906C78.2381 0.718633 79.6197 1.30413 80.6434 2.32786C81.6672 3.35161 82.2527 4.73331 82.2762 6.18084V57.8052C82.2762 58.0871 82.1642 58.3575 81.9648 58.5568C81.7654 58.7562 81.495 58.8682 81.2132 58.8682H65.9134V75.5499H81.3072C81.5891 75.5499 81.8595 75.6619 82.0588 75.8613C82.2582 76.0606 82.3702 76.331 82.3702 76.613V93.8192C82.3467 95.2667 81.7613 96.6484 80.7375 97.6721C79.7138 98.6958 78.3322 99.2813 76.8847 99.3049H26.2972C24.8497 99.2813 23.4681 98.6958 22.4444 97.6721C21.4207 96.6484 20.8352 95.2668 20.8117 93.8193V44.1696C20.8117 43.8877 20.9237 43.6173 21.1231 43.4179C21.3224 43.2186 21.5928 43.1066 21.8747 43.1066H44.6976V26.6129H21.8747C21.5928 26.6129 21.3224 26.5009 21.1231 26.3016C20.9237 26.1022 20.8117 25.8319 20.8117 25.5499V6.18075C20.8352 4.73325 21.4207 3.35159 22.4444 2.32786ZM23.9209 3.80434C24.5504 3.17482 25.4043 2.82116 26.2946 2.82116H76.7933C77.6836 2.82116 78.5374 3.17482 79.167 3.80434C79.7965 4.43387 80.1501 5.2877 80.1501 6.17798V56.7422H64.7564C64.4745 56.7422 64.2041 56.8542 64.0047 57.0536C63.8054 57.2529 63.6934 57.5233 63.6934 57.8052V76.613C63.6934 76.8949 63.8054 77.1652 64.0047 77.3646C64.2041 77.5639 64.4745 77.676 64.7564 77.676H80.1501V93.728C80.1501 94.1688 80.0633 94.6053 79.8946 95.0126C79.7259 95.4198 79.4787 95.7899 79.167 96.1016C78.8552 96.4133 78.4851 96.6606 78.0779 96.8292C77.6706 96.9979 77.2342 97.0848 76.7933 97.0848H26.2946C25.8537 97.0848 25.4172 96.9979 25.0099 96.8292C24.6027 96.6606 24.2326 96.4133 23.9209 96.1016C23.6092 95.7899 23.362 95.4198 23.1933 95.0126C23.0246 94.6053 22.9377 94.1688 22.9377 93.728V45.1371L45.5 45.2326C45.7817 45.2325 46.0524 45.1205 46.2517 44.9212C46.451 44.7219 46.563 44.4515 46.563 44.1696V25.5499C46.563 25.268 46.451 24.9977 46.2517 24.7983C46.0523 24.5989 45.7819 24.4869 45.5 24.4869H22.9377V6.17798C22.9377 5.2877 23.2914 4.43387 23.9209 3.80434Z" fill="#6D6E70"/>
<path d="M51.5909 91.9107C50.4454 91.9107 49.3256 91.571 48.3731 90.9345C47.4206 90.2981 46.6783 89.3936 46.2399 88.3353C45.8015 87.277 45.6869 86.1124 45.9104 84.9889C46.1339 83.8654 46.6854 82.8334 47.4954 82.0234C48.3054 81.2134 49.3375 80.6617 50.461 80.4383C51.5845 80.2148 52.749 80.3295 53.8074 80.7679C54.8657 81.2062 55.7703 81.9486 56.4067 82.9011C57.0431 83.8535 57.3828 84.9733 57.3828 86.1188C57.3828 87.6549 56.7726 89.1281 55.6864 90.2142C54.6002 91.3004 53.127 91.9107 51.5909 91.9107ZM51.5909 83.8021C51.1327 83.8021 50.6848 83.938 50.3038 84.1926C49.9228 84.4471 49.6259 84.8089 49.4505 85.2322C49.2752 85.6555 49.2293 86.1214 49.3187 86.5708C49.4081 87.0202 49.6287 87.433 49.9527 87.757C50.2767 88.081 50.6895 88.3017 51.1389 88.3911C51.5883 88.4805 52.0541 88.4346 52.4775 88.2592C52.9008 88.0839 53.2626 87.7869 53.5172 87.4059C53.7718 87.0249 53.9077 86.577 53.9077 86.1188C53.9077 85.5044 53.6636 84.9151 53.2291 84.4807C52.7946 84.0462 52.2054 83.8021 51.5909 83.8021Z" fill="#FFD503"/>
<path d="M56.3567 8.9963H47.2658C46.8891 8.9963 46.5278 8.84666 46.2614 8.58027C45.995 8.31388 45.8453 7.95258 45.8453 7.57585C45.8453 7.19912 45.995 6.83782 46.2614 6.57143C46.5278 6.30504 46.8891 6.1554 47.2658 6.1554H56.3567C56.7335 6.1554 57.0948 6.30504 57.3612 6.57143C57.6275 6.83782 57.7772 7.19912 57.7772 7.57585C57.7772 7.95258 57.6275 8.31388 57.3612 8.58027C57.0948 8.84666 56.7335 8.9963 56.3567 8.9963Z" fill="#6D6E70"/>
<path d="M45.9849 45.9204H9.48166C9.10494 45.9204 8.74363 45.7707 8.47724 45.5043C8.21086 45.238 8.06121 44.8767 8.06121 44.5L8.06121 25C8.06121 24.6232 8.21086 24.262 8.47724 23.9956C8.74363 23.7292 9.10494 23.5795 9.48166 23.5795H46.0796C46.4563 23.5795 46.8176 23.7292 47.084 23.9956C47.3504 24.262 47.5001 24.6232 47.5001 25V44.5C47.5005 44.6948 47.4608 44.8875 47.3836 45.0664C47.3064 45.2452 47.1932 45.4062 47.0511 45.5394C46.909 45.6726 46.741 45.7752 46.5576 45.8407C46.3742 45.9063 46.1792 45.9334 45.9849 45.9204ZM11.412 42.321H44.0001V27.2938H11.5067L11.412 42.321Z" fill="#FFD503"/>
<path d="M25.9114 31.8182H15.4948C15.118 31.8182 14.7568 31.6685 14.4904 31.4021C14.224 31.1357 14.0743 30.7745 14.0743 30.3977C14.0743 30.021 14.224 29.6597 14.4904 29.3933C14.7568 29.1269 15.118 28.9773 15.4948 28.9773H25.9114C26.2881 28.9773 26.6495 29.1269 26.9158 29.3933C27.1822 29.6597 27.3319 30.021 27.3319 30.3977C27.3319 30.7745 27.1822 31.1357 26.9158 31.4021C26.6495 31.6685 26.2881 31.8182 25.9114 31.8182Z" fill="#FFD503"/>
<path d="M37.3698 35.9884H15.4948C15.1181 35.9884 14.7568 35.8388 14.4904 35.5724C14.224 35.306 14.0743 34.9447 14.0743 34.568C14.0743 34.1912 14.224 33.8299 14.4904 33.5636C14.7568 33.2972 15.1181 33.1475 15.4948 33.1475H37.3698C37.7466 33.1475 38.1079 33.2972 38.3742 33.5636C38.6406 33.8299 38.7903 34.1912 38.7903 34.568C38.7903 34.9447 38.6406 35.306 38.3742 35.5724C38.1079 35.8388 37.7466 35.9884 37.3698 35.9884Z" fill="#FFD503"/>
<path d="M37.3698 40.2503H15.4948C15.1181 40.2503 14.7568 40.1006 14.4904 39.8342C14.224 39.5679 14.0743 39.2065 14.0743 38.8298C14.0743 38.4531 14.224 38.0918 14.4904 37.8254C14.7568 37.559 15.1181 37.4094 15.4948 37.4094H37.3698C37.7466 37.4094 38.1079 37.559 38.3742 37.8254C38.6406 38.0918 38.7903 38.4531 38.7903 38.8298C38.7903 39.2065 38.6406 39.5679 38.3742 39.8342C38.1079 40.1006 37.7466 40.2503 37.3698 40.2503Z" fill="#FFD503"/>
<path d="M17.5309 50.9469H2.6635C2.28677 50.9469 1.92546 50.7972 1.65908 50.5308C1.39269 50.2644 1.24304 49.9031 1.24304 49.5264C1.24304 49.1497 1.39269 48.7884 1.65908 48.522C1.92546 48.2557 2.28677 48.106 2.6635 48.106H17.6256C18.0023 48.106 18.3636 48.2557 18.63 48.522C18.8964 48.7884 19.0461 49.1497 19.0461 49.5264C19.0461 49.9031 18.8964 50.2644 18.63 50.5308C18.3636 50.7972 18.0023 50.9469 17.6256 50.9469H17.5309Z" fill="#6D6E70"/>
<path d="M17.5309 55.2083H2.6635C2.28677 55.2083 1.92546 55.0586 1.65908 54.7922C1.39269 54.5259 1.24304 54.1646 1.24304 53.7878C1.24304 53.4111 1.39269 53.0498 1.65908 52.7835C1.92546 52.5171 2.28677 52.3674 2.6635 52.3674H17.6256C18.0023 52.3674 18.3636 52.5171 18.63 52.7835C18.8964 53.0498 19.0461 53.4111 19.0461 53.7878C19.0461 54.1646 18.8964 54.5259 18.63 54.7922C18.3636 55.0586 18.0023 55.2083 17.6256 55.2083H17.5309Z" fill="#6D6E70"/>
<path d="M17.5309 59.5644H2.6635C2.28677 59.5644 1.92546 59.4147 1.65908 59.1483C1.39269 58.8819 1.24304 58.5206 1.24304 58.1439C1.24304 57.7672 1.39269 57.4059 1.65908 57.1395C1.92546 56.8731 2.28677 56.7234 2.6635 56.7234H17.6256C18.0023 56.7234 18.3636 56.8731 18.63 57.1395C18.8964 57.4059 19.0461 57.7672 19.0461 58.1439C19.0461 58.5206 18.8964 58.8819 18.63 59.1483C18.3636 59.4147 18.0023 59.5644 17.6256 59.5644H17.5309Z" fill="#6D6E70"/>
<path d="M17.5309 63.9204H2.6635C2.28677 63.9204 1.92546 63.7708 1.65908 63.5044C1.39269 63.238 1.24304 62.8767 1.24304 62.5C1.24304 62.1233 1.39269 61.7619 1.65908 61.4956C1.92546 61.2292 2.28677 61.0795 2.6635 61.0795H17.6256C18.0023 61.0795 18.3636 61.2292 18.63 61.4956C18.8964 61.7619 19.0461 62.1233 19.0461 62.5C19.0461 62.8767 18.8964 63.238 18.63 63.5044C18.3636 63.7708 18.0023 63.9204 17.6256 63.9204H17.5309Z" fill="#6D6E70"/>
<path d="M17.5309 68.2765H2.6635C2.28677 68.2765 1.92546 68.1268 1.65908 67.8604C1.39269 67.594 1.24304 67.2328 1.24304 66.8561C1.24304 66.4793 1.39269 66.118 1.65908 65.8516C1.92546 65.5853 2.28677 65.4356 2.6635 65.4356H17.6256C18.0023 65.4356 18.3636 65.5853 18.63 65.8516C18.8964 66.118 19.0461 66.4793 19.0461 66.8561C19.0461 67.2328 18.8964 67.594 18.63 67.8604C18.3636 68.1268 18.0023 68.2765 17.6256 68.2765H17.5309Z" fill="#6D6E70"/>
<path d="M17.5309 72.5379H2.6635C2.28677 72.5379 1.92546 72.3882 1.65908 72.1218C1.39269 71.8554 1.24304 71.4942 1.24304 71.1175C1.24304 70.7407 1.39269 70.3794 1.65908 70.1131C1.92546 69.8467 2.28677 69.697 2.6635 69.697H17.6256C18.0023 69.697 18.3636 69.8467 18.63 70.1131C18.8964 70.3794 19.0461 70.7407 19.0461 71.1175C19.0461 71.4942 18.8964 71.8554 18.63 72.1218C18.3636 72.3882 18.0023 72.5379 17.6256 72.5379H17.5309Z" fill="#6D6E70"/>
<path d="M76.8113 45.6439H60.7128C60.3361 45.6439 59.9748 45.4943 59.7084 45.2279C59.442 44.9615 59.2923 44.6002 59.2923 44.2235V25.2841C59.2923 24.9074 59.442 24.5461 59.7084 24.2797C59.9748 24.0133 60.3361 23.8636 60.7128 23.8636H76.8113C77.188 23.8636 77.5493 24.0133 77.8157 24.2797C78.0821 24.5461 78.2317 24.9074 78.2317 25.2841V44.2235C78.2317 44.6002 78.0821 44.9615 77.8157 45.2279C77.5493 45.4943 77.188 45.6439 76.8113 45.6439ZM62.7021 42.2247H74.8078V27.2812H62.7021V42.2247Z" fill="#6D6E70"/>
<path d="M85.2393 78.2198H65.1635C64.7868 78.2198 64.4255 78.07 64.1591 77.8037C63.8927 77.5373 63.7431 77.176 63.7431 76.7993V57.8599C63.7431 57.4832 63.8927 57.1219 64.1591 56.8555C64.4255 56.5891 64.7868 56.4395 65.1635 56.4395H87.7961C88.1728 56.4395 88.5341 56.5891 88.8005 56.8555C89.0669 57.1219 89.2166 57.4832 89.2166 57.8599V70.2652C89.2144 70.4913 89.1583 70.7136 89.0529 70.9137C88.9476 71.1137 88.796 71.2858 88.6107 71.4154C88.4255 71.5451 88.212 71.6287 87.9879 71.6592C87.7639 71.6898 87.5358 71.6663 87.3226 71.591L84.5764 70.644L86.3757 76.0417C86.4889 76.2563 86.5453 76.4963 86.5395 76.7389C86.5337 76.9815 86.4658 77.2185 86.3424 77.4275C86.2189 77.6364 86.044 77.8101 85.8343 77.9323C85.6246 78.0544 85.3872 78.1207 85.1446 78.125L85.2393 78.2198ZM66.584 74.7527H83.2506L81.0726 68.8447C80.9883 68.5941 80.9756 68.3248 81.036 68.0673C81.0964 67.8099 81.2275 67.5744 81.4145 67.3874C81.6015 67.2004 81.837 67.0693 82.0945 67.0089C82.3519 66.9485 82.6212 66.9611 82.8719 67.0455L85.8343 68.2766V59.7024H66.584V74.7527Z" fill="#6D6E70"/>
<path d="M87.4172 84.6592H87.1331C86.8922 84.6055 86.6694 84.4899 86.4867 84.3238C86.304 84.1578 86.1678 83.947 86.0914 83.7122L81.0725 68.8448C80.9882 68.5941 80.9755 68.3249 81.0359 68.0674C81.0963 67.8099 81.2274 67.5745 81.4144 67.3874C81.6014 67.2004 81.8369 67.0693 82.0944 67.0089C82.3518 66.9485 82.6211 66.9612 82.8718 67.0455L97.8339 72.2538C98.0603 72.3385 98.2614 72.4795 98.4181 72.6636C98.5748 72.8477 98.682 73.0688 98.7294 73.3058C98.7768 73.5429 98.7629 73.7881 98.689 74.0183C98.6152 74.2485 98.4838 74.456 98.3073 74.6213L88.3642 84.2804C88.1063 84.5195 87.7689 84.6545 87.4172 84.6592ZM84.671 70.7387L88.0801 80.6819L94.7089 74.2425L84.671 70.7387Z" fill="#FFD503"/>
<path d="M96.6029 83.3332C96.2955 83.3332 95.9964 83.2335 95.7506 83.0491L91.4892 79.6401C91.2438 79.3894 91.0999 79.0567 91.0851 78.7062C91.0703 78.3557 91.1857 78.0122 91.4092 77.7417C91.6326 77.4713 91.9482 77.2931 92.2951 77.2414C92.6421 77.1898 92.996 77.2683 93.2885 77.462L97.5498 80.8711C97.7883 81.05 97.9645 81.2994 98.0534 81.5839C98.1423 81.8685 98.1394 82.1738 98.0451 82.4566C97.9508 82.7395 97.77 82.9855 97.5281 83.1598C97.2862 83.3341 96.9957 83.4279 96.6975 83.4279L96.6029 83.3332Z" fill="#FFD503"/>
<path fill-rule="evenodd" clip-rule="evenodd" d="M55.6789 51.552C54.7532 50.8354 53.6155 50.4466 52.4448 50.4468H50.9794C50.54 50.4468 50.1185 50.6214 49.8078 50.9321C49.4971 51.2429 49.3225 51.6643 49.3225 52.1037C49.3225 52.5432 49.4971 52.9646 49.8078 53.2753C50.1185 53.586 50.5399 53.7606 50.9794 53.7606H52.4448C52.8918 53.7603 53.326 53.9121 53.6752 54.1911L53.6812 54.1959L53.6873 54.2005C53.974 54.4155 54.3229 54.5319 54.6814 54.5319C55.0292 54.5319 55.3681 54.4225 55.6502 54.2191C55.9324 54.0158 56.1433 53.7288 56.2533 53.3989C56.3633 53.069 56.3666 52.7129 56.2629 52.3809C56.1597 52.0503 55.9554 51.7605 55.6789 51.552ZM33.2404 51.4468C33.0662 51.4468 32.8991 51.516 32.7759 51.6392C32.6528 51.7624 32.5835 51.9295 32.5835 52.1037C32.5835 52.2779 32.6527 52.445 32.7759 52.5682C32.8992 52.6914 33.0663 52.7606 33.2404 52.7606H37.0967C37.2709 52.7606 37.4379 52.6914 37.5612 52.5682C37.6844 52.4449 37.7536 52.2779 37.7536 52.1037C37.7536 51.9296 37.6844 51.7624 37.5612 51.6392C37.438 51.516 37.2709 51.4468 37.0967 51.4468H33.2404ZM32.0688 50.9321C32.3796 50.6214 32.801 50.4468 33.2404 50.4468H37.0967C37.5362 50.4468 37.9576 50.6214 38.2683 50.9321C38.579 51.2428 38.7536 51.6643 38.7536 52.1037C38.7536 52.5432 38.579 52.9646 38.2683 53.2753C37.9576 53.586 37.5362 53.7606 37.0967 53.7606H33.2404C32.801 53.7606 32.3795 53.586 32.0688 53.2753C31.7581 52.9646 31.5835 52.5432 31.5835 52.1037C31.5835 51.6643 31.7581 51.2429 32.0688 50.9321ZM29.6155 63.1699C29.4413 63.1699 29.2742 63.2392 29.151 63.3624C29.0278 63.4856 28.9586 63.6526 28.9586 63.8268V67.6831C28.9586 67.8574 29.0278 68.0244 29.151 68.1476C29.2742 68.2708 29.4413 68.34 29.6155 68.34C29.7019 68.34 29.7873 68.323 29.8669 68.29C29.9465 68.2571 30.019 68.2087 30.08 68.1476C30.141 68.0866 30.1894 68.0142 30.2224 67.9345C30.2554 67.8548 30.2724 67.7694 30.2724 67.6831V63.8268C30.2724 63.6526 30.2032 63.4856 30.08 63.3624C29.9568 63.2392 29.7897 63.1699 29.6155 63.1699ZM28.4439 62.6553C28.7546 62.3446 29.176 62.1699 29.6155 62.1699C30.055 62.1699 30.4764 62.3446 30.7871 62.6553C31.0978 62.966 31.2724 63.3874 31.2724 63.8268V67.6831C31.2724 67.9007 31.2295 68.1162 31.1463 68.3172C31.063 68.5182 30.941 68.7008 30.7871 68.8547C30.6333 69.0085 30.4507 69.1306 30.2496 69.2139C30.0485 69.2972 29.833 69.34 29.6155 69.34C29.1761 69.34 28.7546 69.1655 28.4439 68.8547C28.1332 68.544 27.9586 68.1225 27.9586 67.6831V63.8268C27.9586 63.3874 28.1332 62.966 28.4439 62.6553ZM56.2239 65.638C56.0497 65.638 55.8826 65.7072 55.7594 65.8304C55.6363 65.9536 55.5671 66.1206 55.5671 66.2949V69.3885L55.5668 69.3972C55.5593 69.6135 55.5287 69.8283 55.4757 70.038C55.4374 70.2053 55.4659 70.381 55.5555 70.5275C55.6365 70.6601 55.7616 70.7592 55.9079 70.8081H56.0697V71.3081L56.1127 70.8099C56.2737 70.8238 56.4342 70.7779 56.5634 70.681C56.6918 70.5847 56.7804 70.4448 56.8127 70.2877C56.8667 69.9931 56.8896 69.6936 56.881 69.3942L56.8808 69.387V66.2949C56.8808 66.1206 56.8116 65.9536 56.6884 65.8304C56.5653 65.7072 56.3982 65.638 56.2239 65.638ZM56.0501 71.8081H55.7774L55.7183 71.7934C55.2948 71.6887 54.9297 71.4212 54.7022 71.049C54.4748 70.6768 54.4032 70.2298 54.5032 69.8052L54.5053 69.7964C54.5408 69.6571 54.5615 69.5144 54.5671 69.3708V66.2949C54.5671 65.8554 54.7416 65.434 55.0523 65.1233C55.3631 64.8125 55.7845 64.638 56.2239 64.638C56.6634 64.638 57.0848 64.8125 57.3956 65.1233C57.7063 65.434 57.8808 65.8554 57.8808 66.2949V69.3729C57.8909 69.7417 57.8622 70.1104 57.7954 70.4731L57.794 70.4807C57.714 70.8803 57.4895 71.2364 57.1634 71.481C56.8437 71.7208 56.4482 71.8368 56.0501 71.8081ZM39.719 72.3479C39.5448 72.3479 39.3777 72.4171 39.2545 72.5403C39.1313 72.6635 39.0621 72.8306 39.0621 73.0048C39.0621 73.1791 39.1313 73.3461 39.2545 73.4693C39.3777 73.5925 39.5448 73.6617 39.719 73.6617H43.5753C43.7495 73.6617 43.9166 73.5925 44.0398 73.4693C44.163 73.3461 44.2322 73.1791 44.2322 73.0048C44.2322 72.8306 44.163 72.6635 44.0398 72.5403C43.9166 72.4171 43.7495 72.3479 43.5753 72.3479H39.719ZM38.5474 71.8332C38.8581 71.5225 39.2796 71.3479 39.719 71.3479H43.5753C44.0147 71.3479 44.4361 71.5225 44.7469 71.8332C45.0576 72.144 45.2322 72.5654 45.2322 73.0048C45.2322 73.4443 45.0576 73.8657 44.7469 74.1764C44.4361 74.4872 44.0147 74.6617 43.5753 74.6617H39.719C39.2796 74.6617 38.8581 74.4872 38.5474 74.1764C38.2366 73.8657 38.0621 73.4443 38.0621 73.0048C38.0621 72.5654 38.2366 72.144 38.5474 71.8332Z" fill="#6D6E70"/>
<path d="M32.7759 51.6392C32.8991 51.516 33.0662 51.4468 33.2404 51.4468H37.0967C37.2709 51.4468 37.438 51.516 37.5612 51.6392C37.6844 51.7624 37.7536 51.9296 37.7536 52.1037C37.7536 52.2779 37.6844 52.4449 37.5612 52.5682C37.4379 52.6914 37.2709 52.7606 37.0967 52.7606H33.2404C33.0663 52.7606 32.8992 52.6914 32.7759 52.5682C32.6527 52.445 32.5835 52.2779 32.5835 52.1037C32.5835 51.9295 32.6528 51.7624 32.7759 51.6392Z" fill="#6D6E70"/>
<path d="M29.151 63.3624C29.2742 63.2392 29.4413 63.1699 29.6155 63.1699C29.7897 63.1699 29.9568 63.2392 30.08 63.3624C30.2032 63.4856 30.2724 63.6526 30.2724 63.8268V67.6831C30.2724 67.7694 30.2554 67.8548 30.2224 67.9345C30.1894 68.0142 30.141 68.0866 30.08 68.1476C30.019 68.2087 29.9465 68.2571 29.8669 68.29C29.7873 68.323 29.7019 68.34 29.6155 68.34C29.4413 68.34 29.2742 68.2708 29.151 68.1476C29.0278 68.0244 28.9586 67.8574 28.9586 67.6831V63.8268C28.9586 63.6526 29.0278 63.4856 29.151 63.3624Z" fill="#6D6E70"/>
<path d="M39.2545 72.5403C39.3777 72.4171 39.5448 72.3479 39.719 72.3479H43.5753C43.7495 72.3479 43.9166 72.4171 44.0398 72.5403C44.163 72.6635 44.2322 72.8306 44.2322 73.0048C44.2322 73.1791 44.163 73.3461 44.0398 73.4693C43.9166 73.5925 43.7495 73.6617 43.5753 73.6617H39.719C39.5448 73.6617 39.3777 73.5925 39.2545 73.4693C39.1313 73.3461 39.0621 73.1791 39.0621 73.0048C39.0621 72.8306 39.1313 72.6635 39.2545 72.5403Z" fill="#6D6E70"/>
<path d="M55.7594 65.8304C55.8826 65.7072 56.0497 65.638 56.2239 65.638C56.3982 65.638 56.5653 65.7072 56.6884 65.8304C56.8116 65.9536 56.8808 66.1206 56.8808 66.2949V69.387L56.881 69.3942C56.8896 69.6936 56.8667 69.9931 56.8127 70.2877C56.7804 70.4448 56.6918 70.5847 56.5634 70.681C56.4342 70.7779 56.2737 70.8238 56.1127 70.8099L56.0697 71.3081V70.8081H55.9079C55.7616 70.7592 55.6365 70.6601 55.5555 70.5275C55.4659 70.381 55.4374 70.2053 55.4757 70.038C55.5287 69.8283 55.5593 69.6135 55.5668 69.3972L55.5671 69.3885V66.2949C55.5671 66.1206 55.6363 65.9536 55.7594 65.8304Z" fill="#6D6E70"/>
</g>
<defs>
<clipPath id="clip0">
<rect width="100" height="100" fill="white"/>
</clipPath>
</defs>
</svg>
