<svg width="100" height="100" viewBox="0 0 100 100" fill="none" xmlns="http://www.w3.org/2000/svg">
<path d="M70.3318 24.2152H29.5247V27.8027H70.3318V24.2152Z" fill="#FFD503"/>
<path d="M70.3318 32.8251H29.5247V36.4125H70.3318V32.8251Z" fill="#FFD503"/>
<path d="M70.3318 42.3318H57.6861V45.9192H70.3318V42.3318Z" fill="#FFD503"/>
<path d="M56.9686 14.3497H42.8879V17.9372H56.9686V14.3497Z" fill="#FFD503"/>
<path d="M91.7668 48.8789C91.7668 48.6005 91.702 48.3258 91.5774 48.0767C91.4529 47.8277 91.2721 47.611 91.0493 47.444L82.3498 40.4484V0H17.5067V40.4484L8.71749 47.5336C8.50642 47.6914 8.3327 47.8937 8.20869 48.1263C8.08469 48.3588 8.01343 48.6157 8 48.8789V98.1166C8.02183 98.5853 8.21782 99.0289 8.5496 99.3607C8.88137 99.6925 9.32503 99.8885 9.79372 99.9103H89.9731C90.2205 99.8988 90.4632 99.8386 90.6874 99.7332C90.9115 99.6277 91.1126 99.4791 91.2793 99.2959C91.4459 99.1126 91.5747 98.8982 91.6584 98.6651C91.742 98.432 91.7789 98.1846 91.7668 97.9372V48.8789ZM88.1794 52.5561V94.8879L57.9552 76.3229L88.1794 52.5561ZM82.3498 52.5561V45.0224L87.1031 48.7892L82.3498 52.5561ZM78.7623 3.58744V55.426L54.1883 74.7085H48.9865V78.296H54.278L83.6951 96.3229H16.1614L41.722 80.6278L38.2242 78.6547L36.8789 79.3722L11.5874 94.9776V52.5561L27.4619 65.0224V60.4484L21.0942 55.426V3.58744H78.7623ZM12.6637 48.8789L17.5067 45.0224V52.6457L12.6637 48.8789Z" fill="#6D6E70"/>
<path d="M28.6278 54.2601C28.6434 54.4691 28.6434 54.6789 28.6278 54.8879C28.5001 55.8598 28.7227 56.8454 29.2556 57.6682C29.7037 58.2679 30.3325 58.708 31.0493 58.9238V78.9238L38.2242 73.9911L45.3991 78.9238V58.9238C46.116 58.708 46.7447 58.2679 47.1928 57.6682C47.7258 56.8454 47.9483 55.8598 47.8206 54.8879C47.8206 54.7085 47.8206 54.3498 47.8206 54.2601L48.1794 53.722C48.4961 53.3361 48.7669 52.9147 48.9866 52.4664C49.2069 52.0361 49.3219 51.5597 49.3219 51.0763C49.3219 50.5928 49.2069 50.1164 48.9866 49.6861L48.4484 48.7893L48.1794 48.4305L47.8206 47.9821C47.8043 47.7731 47.8043 47.5632 47.8206 47.3543C47.924 46.8746 47.9254 46.3786 47.8245 45.8984C47.7237 45.4182 47.523 44.9646 47.2354 44.5671C46.9478 44.1695 46.5798 43.8369 46.1553 43.5909C45.7308 43.3449 45.2592 43.1909 44.7713 43.139L44.1435 42.9597L43.7848 42.4215C43.3148 41.5572 42.5514 40.8892 41.6323 40.5381L40.7354 40.3588C40.0851 40.3891 39.4462 40.5412 38.852 40.8072L38.2242 40.9866L37.5964 40.8072C37.0022 40.5412 36.3633 40.3891 35.713 40.3588L34.8162 40.5381C33.897 40.8892 33.1336 41.5572 32.6637 42.4215L32.3049 42.9597L31.6771 43.139C30.7267 43.3187 29.8696 43.8266 29.2556 44.574C28.7227 45.3968 28.5001 46.3824 28.6278 47.3543C28.6278 47.5337 28.6278 47.8924 28.6278 47.9821L28.2691 48.5202L28 48.8789L27.4619 49.7758C27.2415 50.2061 27.1266 50.6825 27.1266 51.1659C27.1266 51.6493 27.2415 52.1258 27.4619 52.5561C27.6815 53.0044 27.9524 53.4258 28.2691 53.8117L28.6278 54.2601ZM32.2153 47.2646V46.8162H32.6637C33.3011 46.6911 33.9095 46.4477 34.4574 46.0987C34.9608 45.7018 35.3865 45.2153 35.713 44.6637L35.9821 44.305L36.3408 44.4843C36.9357 44.7484 37.5742 44.9004 38.2242 44.9328C38.8743 44.9004 39.5127 44.7484 40.1076 44.4843L40.4664 44.305L40.7354 44.6637C41.0645 45.1991 41.5091 45.6541 42.0367 45.9955C42.5643 46.3369 43.1616 46.556 43.7848 46.6368H44.2332C44.2332 46.8162 44.2332 46.9059 44.2332 47.0852C44.1682 47.7483 44.2291 48.4178 44.4126 49.0583C44.6381 49.6531 44.9727 50.2006 45.3991 50.6727L45.6682 51.0314L45.3991 51.3902C44.9727 51.8622 44.6381 52.4097 44.4126 53.0045C44.2291 53.645 44.1682 54.3145 44.2332 54.9776C44.2332 55.0673 44.2332 55.2467 44.2332 55.426H43.7848C43.1369 55.5362 42.5237 55.7963 41.9943 56.1856C41.4648 56.5749 41.0337 57.0826 40.7354 57.6682L40.4664 58.0269L40.1076 57.8476C39.5127 57.5835 38.8743 57.4315 38.2242 57.3991C37.5742 57.4315 36.9357 57.5835 36.3408 57.8476L35.9821 58.0269L35.713 57.6682C35.3865 57.1166 34.9608 56.6301 34.4574 56.2332C33.9095 55.8841 33.3011 55.6408 32.6637 55.5157H32.2153C32.2153 55.3363 32.2153 55.2467 32.2153 55.0673C32.2802 54.4042 32.2194 53.7347 32.0359 53.0942C31.8103 52.4994 31.4758 51.9519 31.0493 51.4798L30.7803 51.1211L31.0493 50.7624C31.4758 50.2903 31.8103 49.7428 32.0359 49.148C32.2194 48.5075 32.2802 47.838 32.2153 47.1749V47.2646ZM38.2242 69.6861L34.6368 72.1973V61.6144H34.8162L35.713 61.7937C36.3633 61.7634 37.0022 61.6113 37.5964 61.3453L38.2242 61.1659L38.852 61.3453C39.4462 61.6113 40.0851 61.7634 40.7354 61.7937L41.6323 61.6144H41.8117V72.1076L38.2242 69.6861Z" fill="#FFD503"/>
</svg>
