<svg width="100" height="100" viewBox="0 0 100 100" fill="none" xmlns="http://www.w3.org/2000/svg">
<g clip-path="url(#clip0)">
<path fill-rule="evenodd" clip-rule="evenodd" d="M69.4325 10.1486C54.8416 10.1486 43.0134 21.9768 43.0134 36.5677C43.0134 51.1586 54.8416 62.9868 69.4325 62.9868C84.0234 62.9868 95.8516 51.1586 95.8516 36.5677C95.8516 21.9768 84.0234 10.1486 69.4325 10.1486ZM39.083 36.5677C39.083 19.8062 52.671 6.21826 69.4325 6.21826C86.194 6.21826 99.782 19.8062 99.782 36.5677C99.782 53.3293 86.194 66.9172 69.4325 66.9172C52.671 66.9172 39.083 53.3293 39.083 36.5677Z" fill="#FFD503"/>
<path fill-rule="evenodd" clip-rule="evenodd" d="M27.9478 49.4499C25.4155 49.4499 23.3628 51.5027 23.3628 54.0349C23.3628 56.5672 25.4155 58.62 27.9478 58.62C30.48 58.62 32.5328 56.5672 32.5328 54.0349C32.5328 51.5027 30.48 49.4499 27.9478 49.4499ZM19.4324 54.0349C19.4324 49.332 23.2449 45.5195 27.9478 45.5195C32.6507 45.5195 36.4632 49.332 36.4632 54.0349C36.4632 58.7378 32.6507 62.5503 27.9478 62.5503C23.2449 62.5503 19.4324 58.7378 19.4324 54.0349Z" fill="#6D6E70"/>
<path fill-rule="evenodd" clip-rule="evenodd" d="M21.5992 26.4237C22.5471 26.079 23.602 26.5079 24.0405 27.4162L26.4986 32.5078C27.9303 32.4095 29.3683 32.4555 30.7907 32.645L33.4074 27.5861L36.8984 29.3918L33.6233 35.7236C33.2189 36.5054 32.3441 36.9229 31.482 36.7457C29.5447 36.3474 27.5538 36.2811 25.5942 36.5495C24.7504 36.665 23.9281 36.2239 23.5578 35.4568L21.2732 30.7244L17.4656 32.109L18.9179 37.1113C19.1565 37.9333 18.8357 38.8152 18.1247 39.2917C16.4596 40.4076 14.9991 41.8018 13.807 43.4131C13.2883 44.1143 12.3695 44.3897 11.5506 44.0894L6.73626 42.3242L5.12835 45.9994L9.70868 48.6167C10.4465 49.0383 10.8297 49.8864 10.6586 50.7187C10.2603 52.6561 10.1939 54.647 10.4623 56.6065C10.5779 57.4504 10.1367 58.2726 9.3697 58.6429L4.68042 60.9067L6.17419 64.6986L11.1871 63.0815C12.0221 62.8122 12.9345 63.1289 13.4229 63.8577C14.5388 65.5228 15.933 66.9833 17.5444 68.1755C18.2394 68.6896 18.5168 69.5977 18.2276 70.4125L16.4377 75.4568L20.0613 77.0421L22.4904 72.3459C22.8947 71.5642 23.7695 71.1466 24.6316 71.3238C26.5689 71.7221 28.5599 71.7885 30.5194 71.5201C31.3633 71.4045 32.1855 71.8457 32.5558 72.6127L34.8196 77.302L38.6615 75.7885L37.1958 70.7399C36.9585 69.9227 37.2741 69.0457 37.9777 68.5671C39.5569 67.4929 40.9492 66.1669 42.0991 64.6419C42.6157 63.957 43.5169 63.6862 44.3254 63.9731L51.0939 66.3749L49.7796 70.0789L44.3203 68.1418C43.424 69.1756 42.4306 70.121 41.3538 70.9651L42.9353 76.4126C43.2183 77.3872 42.7126 78.417 41.7684 78.7889L34.5631 81.6274C33.6061 82.0044 32.5203 81.5796 32.0731 80.6533L29.6151 75.5617C28.1834 75.6601 26.7454 75.6141 25.3229 75.4245L22.7063 80.4835C22.2304 81.4035 21.1221 81.7962 20.1731 81.381L13.1862 78.3243C12.2417 77.911 11.7771 76.8382 12.1218 75.8667L14.0546 70.4198C12.9429 69.4724 11.9311 68.4138 11.0351 67.2604L5.62521 69.0055C4.63817 69.3239 3.57361 68.8204 3.19348 67.8555L0.355053 60.6503C-0.0219539 59.6932 0.402802 58.6074 1.32911 58.1602L6.4207 55.7022C6.32094 54.2496 6.36971 52.7906 6.56626 51.3478L1.64515 48.5358C0.773175 48.0375 0.417199 46.9619 0.81974 46.0419L3.87651 39.055C4.29289 38.1032 5.3781 37.64 6.35344 37.9976L11.5729 39.9114C12.5272 38.7931 13.5943 37.7762 14.7571 36.8767L13.1783 31.4386C12.8898 30.4448 13.4214 29.3975 14.394 29.0438L21.5992 26.4237Z" fill="#6D6E70"/>
<path fill-rule="evenodd" clip-rule="evenodd" d="M72.1022 73.2956C73.0701 72.2979 73.602 70.9567 73.5809 69.5669L77.5108 69.5073C77.5477 71.9394 76.6169 74.2865 74.9232 76.0323C73.2295 77.7781 70.9117 78.7796 68.4796 78.8165C66.0475 78.8533 63.7004 77.9225 61.9546 76.2288C60.2088 74.5351 59.2073 72.2173 59.1705 69.7852L63.1004 69.7257C63.1214 71.1155 63.6937 72.44 64.6913 73.4079C65.689 74.3757 67.0302 74.9076 68.42 74.8866C69.8099 74.8655 71.1344 74.2932 72.1022 73.2956Z" fill="#6D6E70"/>
<path fill-rule="evenodd" clip-rule="evenodd" d="M85.3198 67.6101L90.7783 68.7018C91.2933 68.8048 91.7456 69.1096 92.0343 69.5483C92.3231 69.9869 92.4243 70.5229 92.3153 71.0366L90.7869 78.2418C90.5636 79.2948 89.5346 79.9722 88.4791 79.7611L84.4566 78.9566C83.9716 79.7854 83.4207 80.5739 82.8092 81.3144L85.0639 84.8576C85.6447 85.7703 85.3787 86.9807 84.4687 87.5657L78.3552 91.4959C77.9154 91.7785 77.3812 91.8744 76.8706 91.7621C76.36 91.6499 75.9152 91.3389 75.6345 90.8978L73.4061 87.396C72.498 87.6598 71.5705 87.8513 70.6321 87.9686L69.8308 91.9749C69.7278 92.4899 69.423 92.9422 68.9844 93.2309C68.5457 93.5197 68.0098 93.6209 67.496 93.5119L60.2908 91.9835C59.2378 91.7602 58.5605 90.7312 58.7716 89.6757L59.5761 85.6532C58.7472 85.1682 57.9587 84.6173 57.2182 84.0058L53.675 86.2606C52.7784 86.8311 51.5906 86.5855 50.9939 85.7061L46.8454 79.5925C46.5471 79.1529 46.4395 78.6113 46.5471 78.0911C46.6547 77.5709 46.9683 77.1164 47.4165 76.8311L52.22 73.7744L54.3301 77.0903L51.2341 79.0604L53.1747 81.9203L56.3684 79.8879C57.1414 79.396 58.1516 79.5035 58.8038 80.147C59.9204 81.2489 61.2147 82.1548 62.6322 82.8269C63.4468 83.2131 63.8941 84.104 63.7173 84.988L63.0065 88.5418L66.3667 89.2546L67.0685 85.7456C67.2469 84.8535 68.0143 84.2005 68.9235 84.1672C70.4978 84.1094 72.0511 83.7858 73.5175 83.21C74.3928 82.8664 75.3888 83.191 75.8936 83.9842L77.8905 87.1221L80.6979 85.3174L78.6913 82.1642C78.1994 81.3913 78.3069 80.381 78.9504 79.7289C80.0523 78.6122 80.9582 77.318 81.6303 75.9005C82.0165 75.0859 82.9074 74.6386 83.7914 74.8153L87.3452 75.5261L88.058 72.1659L84.549 71.4641L85.3198 67.6101Z" fill="#6D6E70"/>
<path fill-rule="evenodd" clip-rule="evenodd" d="M61.276 38.64C63.7321 37.3804 66.7802 36.7859 69.4326 36.7859C72.085 36.7859 75.1331 37.3804 77.5892 38.64C80.0109 39.8819 82.3148 42.0464 82.3148 45.3013V49.6681H78.3844V45.3013C78.3844 44.1893 77.6316 43.0788 75.7957 42.1373C73.9941 41.2134 71.5837 40.7162 69.4326 40.7162C67.2815 40.7162 64.8711 41.2134 63.0695 42.1373C61.2336 43.0788 60.4807 44.1893 60.4807 45.3013V49.6681H56.5504V45.3013C56.5504 42.0464 58.8543 39.8819 61.276 38.64Z" fill="#FFD503"/>
<path fill-rule="evenodd" clip-rule="evenodd" d="M63.411 23.9961C65.008 22.3991 67.1739 21.502 69.4323 21.502C71.6907 21.502 73.8567 22.3991 75.4536 23.9961C77.0506 25.593 77.9477 27.7589 77.9477 30.0173V32.1686C77.9822 33.2941 77.7873 34.4151 77.3746 35.4631C76.9574 36.5225 76.3266 37.4848 75.5215 38.2899C74.7163 39.095 73.7541 39.7258 72.6947 40.143C71.6566 40.5518 70.5471 40.7469 69.4323 40.7171C68.3176 40.7469 67.208 40.5518 66.17 40.143C65.1105 39.7258 64.1483 39.095 63.3432 38.2899C62.538 37.4848 61.9073 36.5225 61.4901 35.4631C61.0774 34.4151 60.8824 33.2941 60.9169 32.1686V30.0173C60.9169 27.7589 61.8141 25.593 63.411 23.9961ZM69.4323 38.751L69.5013 36.787C70.1002 36.808 70.697 36.7056 71.2546 36.486C71.8121 36.2664 72.3186 35.9345 72.7423 35.5107C73.166 35.087 73.498 34.5806 73.7176 34.023C73.9372 33.4654 74.0396 32.8686 74.0186 32.2697L74.0174 32.2353V30.0173C74.0174 28.8013 73.5343 27.6351 72.6744 26.7752C71.8146 25.9154 70.6483 25.4323 69.4323 25.4323C68.2163 25.4323 67.0501 25.9154 66.1902 26.7752C65.3303 27.6351 64.8473 28.8013 64.8473 30.0173V32.2353L64.8461 32.2697C64.825 32.8686 64.9275 33.4654 65.1471 34.023C65.3666 34.5806 65.6986 35.087 66.1224 35.5107C66.5461 35.9345 67.0525 36.2664 67.6101 36.486C68.1677 36.7056 68.7645 36.808 69.3633 36.787L69.4323 38.751Z" fill="#FFD503"/>
</g>
<defs>
<clipPath id="clip0">
<rect width="100" height="87.7729" fill="white" transform="translate(0 6)"/>
</clipPath>
</defs>
</svg>
