<svg width="100" height="100" viewBox="0 0 100 100" fill="none" xmlns="http://www.w3.org/2000/svg">
<path fill-rule="evenodd" clip-rule="evenodd" d="M0.395935 6.39343H99.604V80.3782H96.1406V9.85685H3.85935V89.272H87.234V92.7354H0.395935V6.39343Z" fill="#6D6E70"/>
<path fill-rule="evenodd" clip-rule="evenodd" d="M97.8722 22.6075H4.25522V19.144H97.8722V22.6075Z" fill="#6D6E70"/>
<path fill-rule="evenodd" clip-rule="evenodd" d="M12.7659 16.2322H8.51059V12.7688H12.7659V16.2322Z" fill="#6D6E70"/>
<path fill-rule="evenodd" clip-rule="evenodd" d="M21.2765 16.2322H17.0212V12.7688H21.2765V16.2322Z" fill="#6D6E70"/>
<path fill-rule="evenodd" clip-rule="evenodd" d="M29.7872 16.2322H25.5319V12.7688H29.7872V16.2322Z" fill="#6D6E70"/>
<path fill-rule="evenodd" clip-rule="evenodd" d="M70.6086 67.6276V59.1273H74.072V67.6276H70.6086Z" fill="#FFD503"/>
<path fill-rule="evenodd" clip-rule="evenodd" d="M30.1831 67.6277V50.627H33.6466V67.6277H30.1831Z" fill="#6D6E70"/>
<path fill-rule="evenodd" clip-rule="evenodd" d="M21.6725 67.6277V57.0023H25.1359V67.6277H21.6725Z" fill="#6D6E70"/>
<path fill-rule="evenodd" clip-rule="evenodd" d="M13.1619 67.6277V44.2517H16.6253V67.6277H13.1619Z" fill="#6D6E70"/>
<path fill-rule="evenodd" clip-rule="evenodd" d="M62.0981 67.6277V44.2517H65.5615V67.6277H62.0981Z" fill="#FFD503"/>
<path fill-rule="evenodd" clip-rule="evenodd" d="M53.5873 67.6277V50.627H57.0508V67.6277H53.5873Z" fill="#FFD503"/>
<path fill-rule="evenodd" clip-rule="evenodd" d="M63.8298 35.358C51.8584 35.358 42.1572 45.0505 42.1572 57.0023C42.1572 68.9541 51.8584 78.6466 63.8298 78.6466C75.8012 78.6466 85.5023 68.9541 85.5023 57.0023C85.5023 45.0505 75.8012 35.358 63.8298 35.358ZM38.6938 57.0023C38.6938 43.1337 49.9495 31.8946 63.8298 31.8946C77.71 31.8946 88.9657 43.1337 88.9657 57.0023C88.9657 70.8709 77.71 82.11 63.8298 82.11C49.9495 82.11 38.6938 70.8709 38.6938 57.0023Z" fill="#FFD503"/>
<path fill-rule="evenodd" clip-rule="evenodd" d="M96.6485 92.2289L79.6272 75.2282L82.0748 72.7777L99.096 89.7784L96.6485 92.2289Z" fill="#FFD503"/>
</svg>
