<svg width="100" height="100" viewBox="0 0 100 100" fill="none" xmlns="http://www.w3.org/2000/svg">
<path fill-rule="evenodd" clip-rule="evenodd" d="M43.1702 90.0711C41.0017 89.6776 38.8698 89.1036 36.7967 88.355L30.0444 95.9243L21.2645 90.8487L24.4436 81.1803C22.7723 79.7586 21.2191 78.2034 19.7993 76.53L10.1395 79.7094L5.0705 70.9182L12.63 64.1572C11.8825 62.0814 11.3092 59.9467 10.9161 57.7754L1 55.7069V45.5559L10.9161 43.4873C11.3091 41.316 11.8824 39.1814 12.63 37.1056L5.0705 30.3446L10.1395 21.5534L19.7954 24.7366C21.2164 23.0629 22.7709 21.5077 24.4436 20.0863L21.2645 10.4179L27.5883 6.76348C27.2897 5.47056 27.4663 4.11322 28.0857 2.94004C28.7051 1.76686 29.7259 0.856391 30.9611 0.37538C32.1963 -0.105631 33.5632 -0.124982 34.8115 0.320872C36.0598 0.766726 37.1059 1.64794 37.7582 2.80311C38.4105 3.95829 38.6253 5.31009 38.3634 6.61094C38.1014 7.91179 37.3802 9.07461 36.3317 9.88641C35.2833 10.6982 33.9779 11.1047 32.6546 11.0313C31.3314 10.958 30.0787 10.4097 29.1262 9.48703L25.0251 11.8582L28.0665 21.109C26.6778 22.2927 25.312 23.4304 24.0266 24.7366C22.8866 25.8973 21.8651 27.1307 20.8169 28.368L11.5779 25.3227L9.04918 29.7087L16.2873 36.1824C15.6943 37.8257 15.1014 39.4307 14.6461 41.1239C14.1909 42.817 13.9231 44.4373 13.617 46.1189L4.12939 48.0994V53.1634L13.617 55.1438C13.8925 56.6646 14.145 58.1776 14.5275 59.6754C14.9981 61.5409 15.6408 63.28 16.2873 65.0804L9.04918 71.5541L11.5779 75.9401L20.8169 72.8948C21.9455 74.2278 23.0396 75.5417 24.2791 76.779C25.5186 78.0163 26.7696 79.0544 28.0665 80.1537L25.0251 89.4046L29.4055 91.9366L35.8708 84.6891C37.4317 85.2522 38.9658 85.8268 40.5688 86.2673C42.3056 86.7462 44.031 87.0411 45.7984 87.3629L47.7763 96.8628H52.8338L54.8117 87.3629C56.4491 87.0641 58.0635 86.7921 59.6741 86.3669C61.4147 85.9073 63.0521 85.2982 64.7393 84.6891L71.2046 91.9366L75.585 89.4046L72.5436 80.1537C73.8902 79.0084 75.2139 77.9013 76.4649 76.6449C77.6508 75.4498 78.7067 74.178 79.797 72.8948L89.036 75.9401L91.5647 71.5541L84.3266 65.0804C84.9196 63.437 85.5126 61.8359 85.964 60.1466C86.4154 58.4573 86.6909 56.8293 86.9969 55.1438L96.4884 53.1634V48.0994L87.0007 46.1189C86.687 44.3799 86.3963 42.6752 85.9296 40.963C85.4858 39.3273 84.9043 37.7683 84.3304 36.1786L91.5686 29.7049L89.0398 25.3189L79.8009 28.3642C78.6799 27.0426 77.5973 25.7402 76.3692 24.5144C75.1412 23.2886 73.8558 22.2199 72.5512 21.1052L75.5926 11.8543L71.4915 9.4832C70.5417 10.4014 69.2935 10.9464 67.9752 11.0184C66.6569 11.0905 65.3568 10.6848 64.3128 9.87553C63.2689 9.0663 62.5509 7.9077 62.2902 6.61177C62.0296 5.31585 62.2438 3.96928 62.8936 2.81854C63.5434 1.6678 64.5853 0.789852 65.8287 0.345388C67.0721 -0.0990754 68.4337 -0.0803251 69.6644 0.398206C70.8951 0.876738 71.9126 1.78304 72.5305 2.95124C73.1484 4.11944 73.3256 5.47139 73.0294 6.75965L79.3533 10.414L76.1665 20.0863C77.8379 21.5078 79.3911 23.0631 80.8108 24.7366L90.4668 21.5534L95.5358 30.3446L87.9763 37.1056C88.7238 39.1814 89.2971 41.3161 89.6902 43.4873L99.6063 45.5559V55.7069L89.6902 57.7754C89.2972 59.9467 88.724 62.0814 87.9763 64.1572L95.5358 70.9182L90.4668 79.7094L80.8108 76.5262C79.391 78.2008 77.8378 79.7573 76.1665 81.1803L79.3456 90.8487L70.5657 95.9243L63.8134 88.355C61.7403 89.1036 59.6084 89.6776 57.4399 90.0711L55.374 100H45.2361L43.1702 90.0711ZM38.3728 19.1937C39.2725 19.1939 40.1585 19.4147 40.9533 19.8368C41.7481 20.259 42.4276 20.8696 42.9323 21.6154C43.437 22.3611 43.7516 23.2193 43.8487 24.1149C43.9457 25.0105 43.8222 25.9163 43.4889 26.7531C43.1556 27.5898 42.6228 28.3322 41.9368 28.9151C41.2509 29.4981 40.4328 29.904 39.5541 30.0973C38.6754 30.2906 37.7627 30.2655 36.8959 30.0242C36.0291 29.7828 35.2345 29.3326 34.5816 28.7128C27.7796 33.6236 23.3342 41.6257 23.3342 50.6314C23.3342 65.5056 35.45 77.637 50.305 77.637C65.1601 77.637 77.2759 65.5056 77.2759 50.6314C77.2759 41.6257 72.8343 33.6236 66.0285 28.7128C65.0698 29.6208 63.8166 30.1529 62.4982 30.2118C61.1798 30.2707 59.8843 29.8525 58.8486 29.0335C57.8129 28.2146 57.1063 27.0497 56.8579 25.7519C56.6095 24.4541 56.836 23.1101 57.4959 21.9658C58.1559 20.8215 59.2052 19.9533 60.4519 19.52C61.6987 19.0867 63.0595 19.1173 64.2856 19.6061C65.5117 20.0949 66.521 21.0094 67.1291 22.1821C67.7372 23.3549 67.9033 24.7077 67.597 25.993C75.3325 31.4555 80.3977 40.465 80.3977 50.6314C80.3977 67.2293 66.8816 80.7628 50.305 80.7628C33.7285 80.7628 20.2124 67.2293 20.2124 50.6314C20.2124 40.4688 25.2814 31.4555 33.0131 25.993C32.8202 25.1823 32.8131 24.3383 32.9924 23.5245C33.1717 22.7106 33.5328 21.9479 34.0485 21.2937C34.5642 20.6395 35.2211 20.1107 35.9701 19.747C36.719 19.3833 37.5405 19.1942 38.3728 19.1937ZM40.7409 24.7098C40.7409 24.2408 40.602 23.7824 40.3418 23.3925C40.0816 23.0025 39.7118 22.6986 39.2791 22.5191C38.8463 22.3397 38.3702 22.2927 37.9108 22.3842C37.4515 22.4757 37.0295 22.7015 36.6983 23.0331C36.3672 23.3648 36.1416 23.7872 36.0503 24.2472C35.9589 24.7072 36.0058 25.1839 36.185 25.6172C36.3642 26.0504 36.6678 26.4208 37.0572 26.6813C37.4466 26.9419 37.9045 27.0809 38.3728 27.0809C39.0003 27.0789 39.6014 26.8284 40.0451 26.3842C40.4888 25.94 40.7389 25.338 40.7409 24.7098ZM64.6054 24.7098C64.6054 24.2408 64.4665 23.7824 64.2063 23.3925C63.946 23.0025 63.5762 22.6986 63.1435 22.5191C62.7108 22.3397 62.2346 22.2927 61.7753 22.3842C61.3159 22.4757 60.894 22.7015 60.5628 23.0331C60.2316 23.3648 60.0061 23.7872 59.9147 24.2472C59.8233 24.7072 59.8702 25.1839 60.0494 25.6172C60.2287 26.0504 60.5322 26.4208 60.9216 26.6813C61.3111 26.9419 61.7689 27.0809 62.2373 27.0809C62.8647 27.0789 63.4659 26.8284 63.9095 26.3842C64.3532 25.94 64.6033 25.338 64.6054 24.7098ZM35.32 5.51854C35.32 5.04957 35.1811 4.59114 34.9209 4.20121C34.6607 3.81128 34.2908 3.50736 33.8581 3.3279C33.4254 3.14843 32.9492 3.10147 32.4899 3.19296C32.0305 3.28446 31.6086 3.51029 31.2774 3.84189C30.9462 4.1735 30.7207 4.596 30.6293 5.05595C30.5379 5.51591 30.5848 5.99267 30.7641 6.42593C30.9433 6.8592 31.2468 7.22952 31.6362 7.49007C32.0257 7.75061 32.4835 7.88967 32.9519 7.88967C33.5793 7.88765 34.1805 7.63719 34.6241 7.19295C35.0678 6.74871 35.3179 6.14678 35.32 5.51854ZM70.0225 5.51854C70.0225 5.04957 69.8836 4.59114 69.6234 4.20121C69.3632 3.81128 68.9933 3.50736 68.5606 3.3279C68.1279 3.14843 67.6518 3.10147 67.1924 3.19296C66.733 3.28446 66.3111 3.51029 65.9799 3.84189C65.6487 4.1735 65.4232 4.596 65.3318 5.05595C65.2404 5.51591 65.2873 5.99267 65.4666 6.42593C65.6458 6.8592 65.9493 7.22952 66.3388 7.49007C66.7282 7.75061 67.186 7.88967 67.6544 7.88967C68.2818 7.88765 68.883 7.63719 69.3267 7.19295C69.7703 6.74871 70.0205 6.14678 70.0225 5.51854Z" fill="#6D6E70"/>
<path fill-rule="evenodd" clip-rule="evenodd" d="M55.814 12.6243C55.814 9.58661 53.3388 7.10822 50.305 7.10822C47.2713 7.10822 44.7961 9.58661 44.7961 12.6243C44.7961 15.118 46.4641 17.2363 48.7442 17.9143V47.2145H51.8659V17.9143C54.1422 17.2363 55.814 15.1218 55.814 12.6243ZM52.6731 12.6243C52.6731 12.1553 52.5342 11.6969 52.274 11.3069C52.0138 10.917 51.644 10.6131 51.2112 10.4336C50.7785 10.2542 50.3024 10.2072 49.843 10.2987C49.3837 10.3902 48.9617 10.616 48.6305 10.9476C48.2994 11.2792 48.0738 11.7017 47.9824 12.1617C47.8911 12.6216 47.938 13.0984 48.1172 13.5317C48.2964 13.9649 48.6 14.3352 48.9894 14.5958C49.3788 14.8563 49.8367 14.9954 50.305 14.9954C50.9325 14.9934 51.5336 14.7429 51.9773 14.2987C52.421 13.8544 52.6711 13.2525 52.6731 12.6243Z" fill="#FFD503"/>
<path fill-rule="evenodd" clip-rule="evenodd" d="M67.903 50.6314C67.903 40.9362 59.9877 33.0107 50.305 33.0107C40.6223 33.0107 32.707 40.9362 32.707 50.6314C32.707 60.3266 40.6223 68.2521 50.305 68.2521C59.9877 68.2521 67.903 60.3266 67.903 50.6314ZM64.7813 50.6314C64.7813 42.6638 58.2662 36.1364 50.305 36.1364C42.3438 36.1364 35.8325 42.6638 35.8325 50.6314C35.8325 58.599 42.3476 65.1225 50.305 65.1225C58.2624 65.1225 64.7813 58.599 64.7813 50.6314Z" fill="#FFD503"/>
<path fill-rule="evenodd" clip-rule="evenodd" d="M55.814 50.6314C55.814 47.6206 53.312 45.1154 50.305 45.1154C47.2981 45.1154 44.7961 47.6206 44.7961 50.6314C44.7961 53.6422 47.2981 56.1474 50.305 56.1474C53.312 56.1474 55.814 53.6422 55.814 50.6314ZM52.6731 50.6314C52.6731 50.1624 52.5342 49.704 52.274 49.3141C52.0138 48.9241 51.644 48.6202 51.2112 48.4408C50.7785 48.2613 50.3024 48.2143 49.843 48.3058C49.3837 48.3973 48.9617 48.6231 48.6305 48.9548C48.2994 49.2864 48.0738 49.7089 47.9824 50.1688C47.8911 50.6288 47.938 51.1055 48.1172 51.5388C48.2964 51.9721 48.6 52.3424 48.9894 52.6029C49.3788 52.8635 49.8367 53.0025 50.305 53.0025C50.9325 53.0005 51.5336 52.75 51.9773 52.3058C52.421 51.8616 52.6711 51.2596 52.6731 50.6314Z" fill="#FFD503"/>
</svg>
